<?xml version="1.0" encoding="UTF-8"?>
<svg width="685px" height="542px" viewBox="0 0 685 542" version="1.1" xmlns="http://www.w3.org/2000/svg" xmlns:xlink="http://www.w3.org/1999/xlink">
    <!-- Generator: Sketch 52.2 (67145) - http://www.bohemiancoding.com/sketch -->
    <title>Group 12</title>
    <desc>Created with Sketch.</desc>
    <defs>
        <path d="M8.23745819,0.316026738 L490.238573,0.316026738 C494.285396,0.316026738 497.596433,4.13912942 497.596433,8.81181047 L497.596433,81.0259722 C497.596433,85.6986532 494.285396,89.5217559 490.238573,89.5217559 L8.23745819,89.5217559 C4.19063545,89.5217559 0.879598662,85.6986532 0.879598662,81.0259722 L0.879598662,8.81181047 C0.879598662,4.13912942 4.19063545,0.316026738 8.23745819,0.316026738 Z" id="path-1"></path>
        <linearGradient x1="50%" y1="100%" x2="50%" y2="3.061617e-15%" id="linearGradient-3">
            <stop stop-color="#BF976F" offset="0%"></stop>
            <stop stop-color="#8B5E3C" offset="100%"></stop>
        </linearGradient>
        <linearGradient x1="50%" y1="100%" x2="50%" y2="3.061617e-15%" id="linearGradient-4">
            <stop stop-color="#D4B388" offset="0%"></stop>
            <stop stop-color="#A97C50" offset="100%"></stop>
        </linearGradient>
        <linearGradient x1="50%" y1="100%" x2="50%" y2="3.061617e-15%" id="linearGradient-5">
            <stop stop-color="#FFE554" offset="0%"></stop>
            <stop stop-color="#FFC72A" offset="100%"></stop>
        </linearGradient>
        <linearGradient x1="50%" y1="0%" x2="50%" y2="100%" id="linearGradient-6">
            <stop stop-color="#1F1845" offset="0%"></stop>
            <stop stop-color="#2B3990" offset="100%"></stop>
        </linearGradient>
        <linearGradient x1="10.7662338%" y1="50%" x2="65.2834755%" y2="15.7607429%" id="linearGradient-7">
            <stop stop-color="#8895A6" offset="0%"></stop>
            <stop stop-color="#000000" offset="100%"></stop>
        </linearGradient>
        <linearGradient x1="50%" y1="100%" x2="50%" y2="3.061617e-15%" id="linearGradient-8">
            <stop stop-color="#DFE0E1" offset="0%"></stop>
            <stop stop-color="#BCBEC0" offset="100%"></stop>
        </linearGradient>
        <linearGradient x1="50%" y1="100%" x2="50%" y2="3.061617e-15%" id="linearGradient-9">
            <stop stop-color="#EDAA00" offset="0%"></stop>
            <stop stop-color="#FFC72A" offset="100%"></stop>
        </linearGradient>
        <linearGradient x1="50%" y1="0%" x2="50%" y2="100%" id="linearGradient-10">
            <stop stop-color="#F4F5F5" offset="0%"></stop>
            <stop stop-color="#E6E7E8" offset="100%"></stop>
        </linearGradient>
        <linearGradient x1="50%" y1="0%" x2="50%" y2="100%" id="linearGradient-11">
            <stop stop-color="#DFE0E1" offset="0%"></stop>
            <stop stop-color="#BCBEC0" offset="100%"></stop>
        </linearGradient>
        <linearGradient x1="50%" y1="0%" x2="50%" y2="100%" id="linearGradient-12">
            <stop stop-color="#FFFFFF" offset="0%"></stop>
            <stop stop-color="#F7F9FF" offset="100%"></stop>
        </linearGradient>
        <linearGradient x1="50%" y1="99.9368138%" x2="50%" y2="99.925436%" id="linearGradient-13">
            <stop stop-color="#1974CE" offset="0%"></stop>
            <stop stop-color="#3151B7" offset="100%"></stop>
        </linearGradient>
        <linearGradient x1="50%" y1="0%" x2="50%" y2="100%" id="linearGradient-14">
            <stop stop-color="#484243" offset="0%"></stop>
            <stop stop-color="#231F20" offset="100%"></stop>
        </linearGradient>
        <linearGradient x1="50%" y1="0%" x2="50%" y2="100%" id="linearGradient-15">
            <stop stop-color="#3C3637" offset="0%"></stop>
            <stop stop-color="#6F4B27" offset="100%"></stop>
        </linearGradient>
        <linearGradient x1="50%" y1="0%" x2="50%" y2="100%" id="linearGradient-16">
            <stop stop-color="#996B2B" offset="0%"></stop>
            <stop stop-color="#603913" offset="100%"></stop>
        </linearGradient>
        <linearGradient x1="50%" y1="100%" x2="50%" y2="3.061617e-15%" id="linearGradient-17">
            <stop stop-color="#EFA1A0" offset="0%"></stop>
            <stop stop-color="#D8AC8D" offset="100%"></stop>
        </linearGradient>
        <linearGradient x1="50%" y1="100%" x2="50%" y2="3.061617e-15%" id="linearGradient-18">
            <stop stop-color="#6F4A2F" offset="0%"></stop>
            <stop stop-color="#3C2415" offset="100%"></stop>
        </linearGradient>
        <linearGradient x1="50%" y1="100%" x2="50%" y2="3.061617e-15%" id="linearGradient-19">
            <stop stop-color="#484243" stop-opacity="0.1" offset="0%"></stop>
            <stop stop-color="#231F20" stop-opacity="0.8" offset="100%"></stop>
        </linearGradient>
        <linearGradient x1="50%" y1="0.261296453%" x2="50%" y2="100%" id="linearGradient-20">
            <stop stop-color="#86AEEB" offset="0%"></stop>
            <stop stop-color="#2A459C" offset="100%"></stop>
        </linearGradient>
        <linearGradient x1="66.1170844%" y1="84.6690556%" x2="35.4504144%" y2="0%" id="linearGradient-21">
            <stop stop-color="#84ADE9" offset="0%"></stop>
            <stop stop-color="#6487CE" offset="100%"></stop>
        </linearGradient>
        <linearGradient x1="50%" y1="86.5339949%" x2="50%" y2="100%" id="linearGradient-22">
            <stop stop-color="#C4E0F5" offset="0%"></stop>
            <stop stop-color="#E1EEFB" offset="100%"></stop>
        </linearGradient>
        <linearGradient x1="50%" y1="71.7222312%" x2="21.3547888%" y2="0%" id="linearGradient-23">
            <stop stop-color="#FE6820" offset="0%"></stop>
            <stop stop-color="#F58B0F" offset="100%"></stop>
        </linearGradient>
        <linearGradient x1="50%" y1="0%" x2="50%" y2="100%" id="linearGradient-24">
            <stop stop-color="#D3D4D6" offset="0%"></stop>
            <stop stop-color="#A7A9AC" offset="100%"></stop>
        </linearGradient>
        <linearGradient x1="50%" y1="0%" x2="50%" y2="100%" id="linearGradient-25">
            <stop stop-color="#9259F6" offset="0%"></stop>
            <stop stop-color="#592DEA" offset="100%"></stop>
        </linearGradient>
        <linearGradient x1="50%" y1="0%" x2="50%" y2="100%" id="linearGradient-26">
            <stop stop-color="#6F7E91" offset="0%"></stop>
            <stop stop-color="#3C4858" offset="100%"></stop>
        </linearGradient>
        <linearGradient x1="50%" y1="0%" x2="50%" y2="100%" id="linearGradient-27">
            <stop stop-color="#FF892F" offset="0%"></stop>
            <stop stop-color="#FD5115" offset="100%"></stop>
        </linearGradient>
    </defs>
    <g id="Page-1" stroke="none" stroke-width="1" fill="none" fill-rule="evenodd">
        <g id="home1" transform="translate(-229.000000, -1000.000000)">
            <g id="Group-12" transform="translate(159.000000, 999.000000)">
                <g id="Group-2">
                    <path d="M165.842542,356.398849 C15.2911471,425.250062 83.1711236,543 228.618989,543 C374.066855,543 630.711215,503.777482 652.081294,430.088166 C673.451373,356.398849 316.393937,287.547636 165.842542,356.398849 Z" id="Sh" fill="#F4F8FF"></path>
                    <g id="Group-16" transform="translate(70.000000, 0.000000)">
                        <g id="Group-5">
                            <g id="Group-3" transform="translate(0.000000, 0.990596)">
                                <mask id="mask-2" fill="white">
                                    <use xlink:href="#path-1"></use>
                                </mask>
                                <use id="Mask" fill="#C4E0F5" fill-rule="nonzero" xlink:href="#path-1"></use>
                                <g mask="url(#mask-2)" id="Group">
                                    <g transform="translate(-12.000000, 14.055122)">
                                        <g>
                                            <polygon id="Shape" fill="#8DC6F9" fill-rule="nonzero" points="6.89664804 47.1596107 0.67578125 78.6545653 104.036313 89.9683936 159.695531 26.9014381 111.402235 20.6969056"></polygon>
                                            <path d="M160.273743,26.3283287 C160.273743,26.3283287 66.226257,38.3885446 36.4357542,43.7707897 C28.1899441,45.2658578 4.05586592,52.2179244 4.05586592,52.2179244 C4.05586592,52.2179244 -0.494413408,45.4652002 9.73743017,43.7707897 C19.9692737,42.0763792 18.2597765,40.3819687 18.8379888,37.0180655 C19.4162011,33.6292445 22.2569832,33.0810529 27.3603352,34.7754634 C32.4636872,36.4698739 40.1815642,35.5479152 38.7234637,31.3866424 C34.1731844,18.4293856 45.5363128,15.6136741 55.7681564,20.1237961 C66,24.6339182 67.6843575,21.8182066 69.3938547,21.8182066 C71.103352,21.8182066 78.8463687,13.4209075 85.2067039,16.2117013 C91.5418994,19.0024951 95.5893855,13.1218939 104.363128,13.5205787 C113.136872,13.9192636 114.846369,1.53511624 122.790503,6.61834774 C130.734637,11.7015792 132.444134,-0.134376455 140.388268,10.0071687 C148.332402,20.1487139 144.360335,17.3330024 148.332402,20.1487139 C152.304469,22.9644255 154.013966,17.9061118 159.695531,20.7218234 C165.377095,23.5126171 160.273743,26.3283287 160.273743,26.3283287 Z" id="Shape" fill="#3151B7" fill-rule="nonzero"></path>
                                            <polygon id="Shape" fill="#361828" fill-rule="nonzero" points="59.9916201 0.887253404 45.0586592 34.6757922 48.0502793 35.5229974 48.0502793 48.1812405 98.7569832 70.5574262 137.522346 33.8285869 114.519553 5.54688227"></polygon>
                                            <polygon id="Shape" fill="#142F85" fill-rule="nonzero" points="59.9916201 0.887253404 83.4217877 46.5117478 130.282123 23.7119595 114.519553 5.54688227"></polygon>
                                            <polygon id="Shape" fill="#FFB000" fill-rule="nonzero" points="72.3351955 12.2996065 74.0446927 16.5107149 117.460894 13.6700855 115.776536 11.0287986"></polygon>
                                            <polygon id="Shape" fill="#FFB000" fill-rule="nonzero" points="52.9022346 33.1059707 65.9748603 15.239907 76.6340782 37.3419969 52.5 47.7576379"></polygon>
                                            <polygon id="Shape" fill="#D39200" fill-rule="nonzero" points="86.8659218 62.9574968 52.5 47.7576379 76.6340782 37.3419969"></polygon>
                                            <polygon id="Shape" fill="#361828" fill-rule="nonzero" points="51.2178771 33.4049843 78.4692737 40.4318043 79.7513966 43.2475159 48.5027933 34.6757922"></polygon>
                                            <polygon id="Rectangle-path" fill="#361828" fill-rule="nonzero" points="60.2932961 20.2982207 60.9972067 20.2982207 60.9972067 52.8159516 60.2932961 52.8159516"></polygon>
                                            <rect id="Rectangle-path" fill="#361828" fill-rule="nonzero" x="72.5111732" y="40.7308179" width="1.13128492" height="17.7414746"></rect>
                                            <polygon id="Rectangle-path" fill="#142F85" fill-rule="nonzero" transform="translate(84.030645, 13.954024) rotate(-30.000728) translate(-84.030645, -13.954024) " points="84.0208857 11.4192927 84.0209028 11.4192928 84.0404048 16.488755 84.0403877 16.488755"></polygon>
                                            <polygon id="Rectangle-path" fill="#142F85" fill-rule="nonzero" transform="translate(105.474226, 13.156131) rotate(-30.000728) translate(-105.474226, -13.156131) " points="105.464467 10.6213998 105.464484 10.6213999 105.483986 15.6908621 105.483969 15.6908621"></polygon>
                                            <polygon id="Rectangle-path" fill="#142F85" fill-rule="nonzero" transform="translate(98.385168, 13.135848) rotate(-30.000728) translate(-98.385168, -13.135848) " points="98.3723339 9.80198969 98.3723509 9.80198975 98.3980013 16.4697061 98.3979843 16.469706"></polygon>
                                            <polygon id="Rectangle-path" fill="#142F85" fill-rule="nonzero" transform="translate(91.696810, 13.107591) rotate(-30.000728) translate(-91.696810, -13.107591) " points="91.6870505 10.57286 91.6870676 10.57286 91.7065696 15.6423222 91.7065525 15.6423222"></polygon>
                                            <polygon id="Shape" fill="#3151B7" fill-rule="nonzero" points="122.488827 54.0867595 122.488827 32.4082722 106.449721 31.561067 116.530726 53.389061"></polygon>
                                            <polygon id="Shape" fill="#FD6B4D" fill-rule="nonzero" points="124.776536 30.5892727 124.776536 50.7228563 122.363128 53.9621705 122.363128 33.4049843"></polygon>
                                            <polygon id="Shape" fill="#C4E0F5" fill-rule="nonzero" points="104.614525 27.4994653 105.594972 32.557779 123.217877 34.949888 125.706704 29.9164921"></polygon>
                                            <polygon id="Rectangle-path" fill="#142F85" fill-rule="nonzero" transform="translate(111.705444, 12.591170) rotate(-30.000728) translate(-111.705444, -12.591170) " points="111.695685 10.0564385 111.695702 10.0564386 111.715204 15.1259008 111.715187 15.1259007"></polygon>
                                            <polygon id="Shape" stroke="#361828" points="72.3351955 12.2996065 74.0446927 16.5107149 117.460894 13.6700855 115.776536 11.0287986"></polygon>
                                            <path d="M74.0698324,27.7486434 L101.622905,22.391316" id="Shape" stroke="#FFFFFF"></path>
                                            <path d="M61.8519553,4.64984142 L68.6648045,6.9391354" id="Shape" stroke="#FFFFFF"></path>
                                            <path d="M84.4273743,6.64326554 L115.952514,8.02451554" id="Shape" stroke="#FFFFFF"></path>
                                            <path d="M69.3687151,19.5756045 L108.159218,16.4857971" id="Shape" stroke="#FFFFFF"></path>
                                            <path d="M95.6396648,27.9443009 L98.2039106,26.3283287" id="Shape" stroke="#FFFFFF"></path>
                                            <path d="M60.8463687,2.83084192 L65.1201117,4.47913358" id="Shape" stroke="#FFFFFF"></path>
                                            <polygon id="Shape" fill="#FFB000" fill-rule="nonzero" points="113.111732 36.8934765 116.530726 44.3438991 119.648045 44.6429127 119.798883 37.8901885"></polygon>
                                            <polygon id="Shape" stroke="#361828" points="113.111732 36.8934765 116.530726 44.3438991 119.648045 44.6429127 119.798883 37.8901885"></polygon>
                                            <polygon id="Shape" fill="#142F85" fill-rule="nonzero" points="85.7094972 47.1596107 96.4944134 69.5607142 98.7569832 70.5574262 86.4134078 47.1596107"></polygon>
                                        </g>
                                    </g>
                                </g>
                            </g>
                            <path d="M465.070878,31.0186611 L171.035649,31.0186611 C169.67112,31.0186611 168.554687,29.377753 168.554687,27.3721987 C168.554687,25.3666444 169.67112,23.7257364 171.035649,23.7257364 L465.070878,23.7257364 C466.435407,23.7257364 467.551839,25.3666444 467.551839,27.3721987 C467.551839,29.377753 466.435407,31.0186611 465.070878,31.0186611 Z" id="Shape" fill="#8DC6F9" fill-rule="nonzero"></path>
                            <path d="M465.070878,50.4664603 L171.035649,50.4664603 C169.67112,50.4664603 168.554687,48.8255523 168.554687,46.819998 C168.554687,44.8144437 169.67112,43.1735356 171.035649,43.1735356 L465.070878,43.1735356 C466.435407,43.1735356 467.551839,44.8144437 467.551839,46.819998 C467.551839,48.8255523 466.435407,50.4664603 465.070878,50.4664603 Z" id="Shape" fill="#FFFFFF" fill-rule="nonzero"></path>
                            <path d="M378.609387,71.129747 L171.035649,71.129747 C169.67112,71.129747 168.554687,69.488839 168.554687,67.4832847 C168.554687,65.4777304 169.67112,63.8368223 171.035649,63.8368223 L378.609387,63.8368223 C379.973916,63.8368223 381.090348,65.4777304 381.090348,67.4832847 C381.090348,69.488839 379.973916,71.129747 378.609387,71.129747 Z" id="Shape" fill="#FFFFFF" fill-rule="nonzero"></path>
                            <g id="Group" transform="translate(527.579710, 22.384280)" fill-rule="nonzero">
                                <ellipse id="Oval" fill="#C4E0F5" cx="27.7146042" cy="27.4700164" rx="27.4693423" ry="27.2269189"></ellipse>
                                <path d="M43.1661093,17.3814706 C42.1850613,16.4090806 40.5908584,16.4090806 39.6098105,17.3814706 L24.5875139,32.2711919 L15.819398,23.5804566 C14.8383501,22.6080666 13.2441472,22.6080666 12.2630992,23.5804566 C11.2820513,24.5528466 11.2820513,26.1329802 12.2630992,27.1053702 L22.4414716,37.1939161 C22.5027871,37.3154648 22.6254181,37.4370136 22.7480491,37.5585623 C23.238573,38.0447573 23.9130435,38.2878548 24.5875139,38.2878548 C25.2619844,38.2878548 25.8751394,38.0447573 26.4269788,37.5585623 C26.5496098,37.4370136 26.6722408,37.3154648 26.7335563,37.1939161 L43.1661093,20.9063842 C44.0858417,19.9339942 44.0858417,18.3538605 43.1661093,17.3814706 Z" id="Shape" fill="#FFFFFF"></path>
                            </g>
                        </g>
                    </g>
                    <g id="Untitled-2" transform="translate(192.000000, 49.000000)">
                        <g id="Group" transform="translate(506.000000, 376.000000)" fill-rule="nonzero">
                            <circle id="Oval" fill="#EDAA00" cx="26.5" cy="26.5" r="26.1497797"></circle>
                            <path d="M41.2092511,16.8105727 C40.2753304,15.876652 38.7577093,15.876652 37.8237885,16.8105727 L23.5231278,31.1112335 L15.1762115,22.7643172 C14.2422907,21.8303965 12.7246696,21.8303965 11.7907489,22.7643172 C10.8568282,23.6982379 10.8568282,25.215859 11.7907489,26.1497797 L21.4801762,35.839207 C21.5385463,35.9559471 21.6552863,36.0726872 21.7720264,36.1894273 C22.2389868,36.6563877 22.8810573,36.8898678 23.5231278,36.8898678 C24.1651982,36.8898678 24.7488987,36.6563877 25.2742291,36.1894273 C25.3909692,36.0726872 25.5077093,35.9559471 25.5660793,35.839207 L41.2092511,20.1960352 C42.1431718,19.2037445 42.1431718,17.6861233 41.2092511,16.8105727 Z" id="Shape" fill="#FFFFFF"></path>
                        </g>
                        <g id="Group" transform="translate(501.000000, 138.000000)" fill-rule="nonzero">
                            <path d="M61.2801463,7.47136564 C61.2801463,3.38546256 58.0975136,0.175110132 54.2204883,0.175110132 L7.34898828,0.175110132 C3.47196297,0.175110132 0.289330247,3.50220264 0.289330247,7.47136564 L0.289330247,33.6211454 C0.289330247,37.7070485 3.47196297,40.9174009 7.34898828,40.9174009 L13.7142537,40.9174009 L13.7142537,52.5330396 L24.9402673,40.9174009 L54.3362204,40.9174009 C58.2132457,40.9174009 61.3958784,37.5903084 61.3958784,33.6211454 L61.3958784,7.47136564 L61.2801463,7.47136564 Z" id="Shape_12_" fill="#8DC6F9"></path>
                            <path d="M51.9058463,8.8722467 L9.8372284,8.8722467 C8.67990741,8.8722467 7.69618457,9.68942731 7.69618457,10.623348 L7.69618457,10.8568282 C7.69618457,11.7907489 8.67990741,12.6079295 9.8372284,12.6079295 L51.9058463,12.6079295 C53.0631673,12.6079295 54.0468902,11.7907489 54.0468902,10.8568282 L54.0468902,10.623348 C54.0468902,9.57268722 53.1788994,8.8722467 51.9058463,8.8722467 Z" id="Shape_11_" fill="#FFFFFF"></path>
                            <path d="M51.9058463,18.8535242 L9.8372284,18.8535242 C8.67990741,18.8535242 7.69618457,19.6707048 7.69618457,20.6046256 L7.69618457,20.8381057 C7.69618457,21.7720264 8.67990741,22.589207 9.8372284,22.589207 L51.9058463,22.589207 C53.0631673,22.589207 54.0468902,21.7720264 54.0468902,20.8381057 L54.0468902,20.6046256 C54.0468902,19.6707048 53.1788994,18.8535242 51.9058463,18.8535242 Z" id="Shape_10_" fill="#FFFFFF"></path>
                            <path d="M51.9058463,28.1927313 L9.8372284,28.1927313 C8.67990741,28.1927313 7.69618457,29.0099119 7.69618457,29.9438326 L7.69618457,30.1773128 C7.69618457,31.1112335 8.67990741,31.9284141 9.8372284,31.9284141 L51.9058463,31.9284141 C53.0631673,31.9284141 54.0468902,31.1112335 54.0468902,30.1773128 L54.0468902,29.9438326 C54.0468902,29.0099119 53.1788994,28.1927313 51.9058463,28.1927313 Z" id="Shape_9_" fill="#FFFFFF"></path>
                        </g>
                        <path d="M232.5,163 L478,163" id="Shape" stroke="#141454" stroke-dasharray="7"></path>
                        <path d="M311,233 L448.216561,233 L448.216561,286 L478,286" id="Shape" stroke="#141454" stroke-dasharray="7"></path>
                        <path d="M407,243 L407,402 L482,402" id="Shape" stroke="#141454" stroke-dasharray="7"></path>
                        <path d="M0,0 L12,24 L0,0 Z" id="Shape" fill="#FD6B4D" fill-rule="nonzero"></path>
                    </g>
                    <g id="Art_3" transform="translate(306.000000, 300.000000) scale(-1, 1) translate(-306.000000, -300.000000) translate(0.000000, 56.000000)">
                        <g id="Art">
                            <path d="M326.363435,289.395816 L325.605979,289.506759 C323.37156,289.837799 321.420273,287.651144 321.485949,284.891878 L322.711888,233.806089 C322.771725,231.313445 324.467608,229.352255 326.500623,229.42562 C328.507368,229.498986 330.096711,231.528174 330.073359,233.990398 L329.606335,284.963454 C329.584443,287.230633 328.197965,289.125615 326.363435,289.395816 Z" id="Fill-1" fill="url(#linearGradient-3)"></path>
                            <path d="M293.58087,301.273909 C292.380074,300.497768 291.796522,299.036878 292.126707,297.633278 L308.704701,227.120431 C309.13192,225.299434 310.939179,224.175462 312.738352,224.609228 L312.777435,224.618776 C314.57526,225.052542 315.68576,226.88036 315.257193,228.701357 L299.436604,299.203291 C298.901569,301.471695 295.52155,302.527465 293.58087,301.273909" id="Fill-3" fill="url(#linearGradient-4)"></path>
                            <path d="M242.953812,71.4527501 C242.953812,71.4527501 239.990321,88.7862335 238.774067,90.6803398 C237.557813,92.5744461 236.86281,101.521516 237.036561,102.90318 L237.210311,104.283467 C237.210311,104.283467 220.565001,102.726856 219.765748,102.90318 C219.765748,102.90318 218.966495,97.453664 221.399004,94.9286481 C223.831512,92.4022547 222.267757,88.7862335 222.962759,86.0311698 C223.657762,83.2761061 225.368858,73.93644 225.368858,73.93644 L228.023768,65.0238088 L242.953812,71.4527501 Z" id="Fill-5" fill="url(#linearGradient-5)"></path>
                            <path d="M242.953812,71.5204111 L239.450912,69.9312661 C238.646298,76.0637711 236.726287,89.94542 235.701754,90.8802112 C234.384874,92.0830675 233.598697,93.141581 233.598697,93.141581 L235.866364,92.8693918 L232.578115,95.863473 L236.507685,94.9479275 L231.910457,98.956532 L235.207924,99.8129657 L233.16281,103.86556 C235.643812,104.100633 237.512464,104.283467 237.512464,104.283467 L237.347854,102.906025 C237.183244,101.527208 237.841684,92.5985773 238.993954,90.7083746 C240.146224,88.8181719 242.953812,71.5204111 242.953812,71.5204111" id="Fill-7" fill="#231F20" opacity="0.200000003"></path>
                            <path d="M286.38423,41.7133868 C286.38423,41.7133868 279.2091,52.2328721 277.329899,57.1704785 C275.450698,62.1080849 272.033969,71.1319863 266.225531,70.961724 C260.417092,70.7914617 255.291999,62.4595063 254.77949,58.8785498 C254.26698,55.2975933 244.016794,60.2351997 244.016794,60.2351997 C244.016794,60.2351997 241.625084,71.1319863 244.016794,79.9856253 C246.408504,88.8392644 245.725159,92.9814054 248.116869,93.7196627 C250.508579,94.45792 249.654397,95.649756 249.141887,97.0118543 C248.629378,98.3739526 247.433523,99.5576161 248.287705,101.60485 C249.141887,103.652084 248.971051,102.971034 248.116869,106.546543 C247.262687,110.122051 249.141887,114.889395 249.141887,114.889395 L251.362761,123.913296 L311.668022,118.464903 L311.497185,85.5974704 L286.38423,41.7133868 Z" id="Fill-9" fill="url(#linearGradient-5)"></path>
                            <path d="M325.165456,61.5940108 L317.547023,95.0072355 L305.764871,97.392726 L304.441216,101.829738 C304.441216,101.829738 299.386523,85.4652735 301.745379,79.5015472 C301.745379,79.5015472 300.734441,75.8606071 299.723502,76.4890135 C298.712564,77.1160567 287.929219,82.1528495 285.064894,74.4374917 C285.064894,74.4374917 285.064894,67.5536476 283.716975,65.8592678 C282.369057,64.1662511 279.336242,63.2829381 279.504732,61.5940108 C279.673221,59.9064466 279.336242,58.8840936 277.819834,57.1801718 C276.303426,55.47625 276.303426,46.6158567 276.303426,46.6158567 C276.303426,46.6158567 274.618529,44.2303662 275.123998,42.18566 C275.629467,40.1409539 274.428472,34.0068354 275.029644,33.1548745 C275.629467,32.3029137 276.134936,28.7246779 276.134936,28.7246779 C276.134936,28.7246779 277.145875,21.0570298 289.277137,19.1827159 C301.4084,17.3084019 305.919882,15.0933036 309.814017,16.2860488 C313.708152,17.4787941 317.557806,19.0123237 318.919203,23.2721282 C320.279253,27.5319326 321.96415,38.7778165 321.96415,38.7778165 L321.458681,43.8895818 C321.458681,43.8895818 321.627171,48.830955 320.616232,49.5125237 C319.605294,50.1940924 318.919203,52.2387986 319.099824,53.7723282 C319.280445,55.3058578 325.165456,61.5940108 325.165456,61.5940108" id="Fill-11" fill="#FABCBB"></path>
                            <path d="M313.834827,54.8875885 C311.128514,53.6535732 312.782206,55.0748395 312.03012,58.8413489 C311.278034,62.6063235 304.809125,73.1855895 301.464362,75.1271683 C298.119599,77.0687471 299.811343,78.1665811 296.943548,79.4312933 C298.064949,78.7237298 299.186349,82.8233005 299.186349,82.8233005 C296.569748,89.5382469 302.17675,107.96406 302.17675,107.96406 L303.645036,102.96814 L316.713088,100.282161 L325.165456,62.660043 C325.165456,62.660043 318.925984,55.8883073 318.472939,53.98203 C317.167629,54.8016372 315.35096,55.5798035 313.834827,54.8875885 Z" id="Fill-13" fill="#FABCBB"></path>
                            <path d="M286.686535,188.937105 C286.686535,188.937105 235.487882,225.502194 230.026692,247.847526 L212.277826,334.520329 C212.277826,334.520329 219.786962,339.260248 237.535828,336.551723 L256.649992,262.067283 L309.213943,215.345225 L286.686535,188.937105 Z" id="Fill-15" fill="#EDAA00"></path>
                            <path d="M212.147404,334.933959 C212.147404,334.933959 207.020918,343.920221 202.40708,345.417932 C197.793242,346.915642 191.812341,349.578238 186.685855,349.578238 C181.559368,349.578238 182.072017,352.573659 185.147909,353.904957 C188.2238,355.236255 196.426179,357.566027 201.2109,356.900378 C205.99562,356.234729 211.29299,355.236255 215.394179,352.573659 C219.495368,349.911063 221.887728,349.578238 221.887728,349.578238 L221.887728,352.906484 C221.887728,352.906484 236.071008,353.072896 237.438071,348.579765 C238.805134,344.086633 237.438071,336.930906 237.438071,336.930906 L212.147404,334.933959 Z" id="Fill-17" fill="url(#linearGradient-6)"></path>
                            <path d="M228.887597,350.137242 L223.74185,350.846778 L223.570325,348.895554 C223.570325,348.895554 223.227275,347.653867 220.139827,349.427706 C217.052379,351.201546 207.906671,355.944083 203.330386,356.700448 C199.042264,357.409984 194.068042,356.700448 187.893145,354.57184 C186.918884,354.235521 184.23349,352.680218 183.358027,351.171745 C182.171074,352.220439 183.072609,353.972992 185.148747,354.926608 C188.236195,356.34568 196.46939,358.829055 201.272087,358.119519 C206.074785,357.409984 211.392057,356.34568 215.508654,353.507537 C219.625252,350.669394 222.026601,350.314626 222.026601,350.314626 L222.026601,353.862305 C222.026601,353.862305 236.263168,354.039689 237.635367,349.250322 C237.817869,348.610321 237.9496,347.919233 238.045654,347.202602 C235.486503,348.323668 231.848803,349.728549 228.887597,350.137242" id="Fill-19" fill="#A97C50"></path>
                            <path d="M211.969651,334.933959 C211.969651,334.933959 207.072811,344.519311 202.665654,346.11687 C202.204698,346.284436 201.721543,346.470463 201.234471,346.66075 C202.324834,347.718689 203.565367,348.499717 204.461162,348.424455 C206.583127,348.246948 210.500599,343.986791 211.153511,343.454272 C211.618385,343.075118 214.394567,338.116296 215.958944,335.286132 L211.969651,334.933959 Z" id="Fill-21" fill="#2B3990"></path>
                            <polygon id="Fill-23" fill="#FFD460" points="201.341837 347.202602 201.234471 346.322325 209.71493 344.748873 209.823747 345.629151"></polygon>
                            <polygon id="Fill-25" fill="#FFD460" points="204.418182 348.429466 203.68855 348.223982 205.412996 343.522009 206.142629 343.728837"></polygon>
                            <polygon id="Fill-27" fill="#FFD460" points="210.437267 343.522009 209.823747 337.47168 210.432358 337.387687 211.045878 343.438016"></polygon>
                            <polygon id="Fill-29" fill="#FFD460" points="207.699988 342.295145 207.369668 341.738994 214.401585 338.614552 214.731905 339.170702"></polygon>
                            <path d="M307.986903,215.399823 L285.630678,188.937105 C285.630678,188.937105 254.480074,211.895882 238.230789,233.272555 C237.825667,255.820148 253.115389,244.10461 246.832048,268.807889 C245.879576,272.552581 249.483021,284.647567 250.562895,286.605808 L255.822377,262.218479 L307.986903,215.399823 Z" id="Fill-31" fill="url(#linearGradient-7)" opacity="0.100000001"></path>
                            <path d="M307.986903,215.060261 L297.276587,202.432612 L246.413812,251.034533 C246.413812,251.034533 229.112101,317.815494 224.452957,336.049698 C227.77042,336.154227 232.761837,337.589768 237.476771,336.86621 L256.590546,262.298559 L307.986903,215.060261 Z" id="Fill-33" fill="#231F20" opacity="0.100000001"></path>
                            <polygon id="Fill-35" fill="url(#linearGradient-8)" points="28.2219075 330.026501 38.0382231 330.026501 38.0382231 166.853547 28.2219075 166.853547"></polygon>
                            <polygon id="Fill-37" fill="url(#linearGradient-8)" points="123.930985 296.901165 132.520261 296.901165 132.520261 133.728211 123.930985 133.728211"></polygon>
                            <path d="M345.104298,313.12085 L344.797813,230.407385 C344.789785,228.541841 346.253664,227.014141 348.090206,226.970738 C349.952126,226.928693 351.493497,228.426566 351.536253,230.316532 L353.386768,313.001517 C353.429524,314.898266 351.945609,316.468026 350.079683,316.501931 L348.535652,316.530411 C346.656368,316.565673 345.112326,315.031167 345.104298,313.12085" id="Fill-38" fill="url(#linearGradient-4)" transform="translate(349.092725, 271.750441) rotate(-3.000000) translate(-349.092725, -271.750441) "></path>
                            <path d="M380.081937,295.007823 L373.035567,218.476229 C372.859768,216.581747 374.192688,214.899283 376.00971,214.717358 C377.80574,214.536801 379.407606,215.895083 379.609643,217.764944 L387.723924,293.604402 C387.865612,294.924384 387.26606,296.211537 386.183719,296.913248 L385.115809,297.605384 C383.032466,298.95409 380.316773,297.552037 380.081937,295.007823" id="Fill-39" fill="url(#linearGradient-4)"></path>
                            <path d="M255.733968,344.751581 C255.733968,344.751581 252.305816,355.695211 248.426945,357.866877 C244.546729,360.035836 239.604969,363.690031 235.093747,364.162544 C230.582525,364.635058 231.393818,368.078043 234.260927,369.346654 C237.128035,370.615265 244.627455,372.574368 248.756575,371.355852 C252.888387,370.140043 257.429208,368.488277 260.717436,365.008736 C264.004318,361.527841 266.070896,360.918583 266.070896,360.918583 L266.470489,364.797527 C266.470489,364.797527 278.972212,363.684615 279.634163,358.32179 C280.296114,352.960319 278.230881,344.748873 278.230881,344.748873 L255.733968,344.751581 Z" id="Fill-40" fill="url(#linearGradient-6)"></path>
                            <path d="M272.066332,361.131886 L267.633645,362.400597 L267.263582,360.24709 C267.263582,360.24709 266.822197,358.90132 264.315186,361.160783 C261.808175,363.418869 254.32482,369.53951 250.396765,370.808222 C246.717662,371.997123 242.275556,371.672377 236.620987,369.88352 C235.727453,369.601432 232.941885,368.338224 232.259622,366.530103 C231.336482,367.805695 232.326906,369.667482 234.253927,370.534389 C237.122928,371.823741 244.622431,373.814876 248.753684,372.576437 C252.884937,371.34075 257.426624,369.661978 260.715478,366.125546 C264.004333,362.587739 266.069959,361.96852 266.069959,361.96852 L266.470973,365.910884 C266.470973,365.910884 278.975079,364.779776 279.63581,359.329269 C279.724625,358.602718 279.762304,357.821126 279.764996,357.017516 C277.645542,358.500891 274.617751,360.402583 272.066332,361.131886" id="Fill-41" fill="#A97C50"></path>
                            <path d="M256.419522,344.748873 C256.419522,344.748873 252.99435,356.019201 249.118852,358.255698 C248.712886,358.48855 248.289444,358.7465 247.86197,359.008633 C248.984426,360.090629 250.215767,360.846353 251.031732,360.673457 C252.964777,360.262131 256.090178,355.079426 256.63057,354.417121 C257.015028,353.943051 259.012597,348.088281 260.132365,344.748873 L256.419522,344.748873 Z" id="Fill-42" fill="#2B3990"></path>
                            <polygon id="Fill-43" fill="#FFD460" points="246.83901 359.471245 246.634931 358.893116 253.795883 357.017516 253.997167 357.594438"></polygon>
                            <polygon id="Fill-44" fill="#FFD460" points="255.618491 354.563788 253.997167 348.550383 254.829923 348.429466 256.451246 354.441625"></polygon>
                            <polygon id="Fill-45" fill="#FFD460" points="253.213062 353.336923 252.770128 352.824323 258.460989 348.429466 258.905325 348.942067"></polygon>
                            <path d="M366.99285,189.31608 C366.99285,189.31608 380.553926,217.179377 366.99285,223.975303 C353.431774,230.771229 299.18747,254.55697 296.475255,261.352896 C293.76304,268.148822 279.01537,345.282583 279.01537,345.282583 C279.01537,345.282583 265.28478,352.248408 256.470081,345.452482 C256.470081,345.452482 255.792027,267.46923 262.572565,245.722266 C269.353103,223.975303 341.904859,179.12219 341.904859,179.12219 C341.904859,179.12219 361.568419,181.160968 366.99285,189.31608" id="Fill-46" fill="url(#linearGradient-9)"></path>
                            <path d="M267.418211,348.422877 C273.144246,347.836157 278.262268,346.2393 279.001242,345.166564 C279.896872,344.513573 293.271668,268.670452 295.977734,261.895395 C298.6838,255.120338 352.849393,231.439792 366.379722,224.664736 C373.081294,221.309728 372.544072,211.393881 370.898784,203.659477 L287.643967,248.32607 L267.418211,348.422877 Z" id="Fill-47" fill="#231F20" opacity="0.100000001"></path>
                            <path d="M340.780981,179.12219 C321.839845,183.118286 296.686891,203.351563 265.322118,239.822021 C264.676048,244.537868 281.45668,245.359609 284.078806,253.67816 C286.700933,261.996711 284.991867,282.514769 288.418202,293.220572 C291.549886,277.800286 294.445038,264.322542 295.501998,261.652912 C298.205221,254.832191 352.269679,230.959668 365.785793,224.138948 C379.301908,217.318227 365.785793,189.353272 365.785793,189.353272 C360.379347,181.168407 369.192686,173.128048 340.780981,179.12219 Z" id="Fill-48" fill="url(#linearGradient-7)" opacity="0.119999997"></path>
                            <polygon id="Fill-49" fill="url(#linearGradient-8)" points="303.078746 387.689124 312.895061 387.689124 312.895061 224.51617 303.078746 224.51617"></polygon>
                            <path d="M296.177847,69.8815446 C302.688905,70.6435423 305.426177,72.7290519 304.389665,76.1380733 C303.353152,79.5470948 303.353152,85.1959822 304.389665,93.0847358 L309.34815,100.88443 C300.348663,106.849019 295.752457,109.653195 295.559534,109.296957 C295.270149,108.7626 287.03856,91.2895317 287.578385,89.6043088 C287.938269,88.4808268 290.804756,81.9065721 296.177847,69.8815446 Z" id="Path-2" fill="#231F20" opacity="0.5"></path>
                            <polygon id="Fill-50" fill="url(#linearGradient-8)" points="386.517428 337.387687 395.106705 337.387687 395.106705 174.214733 386.517428 174.214733"></polygon>
                            <polygon id="Fill-51" fill="url(#linearGradient-10)" points="431.304369 174.652286 350.455995 228.167961 0 154.996719 132.937648 131.274482"></polygon>
                            <polygon id="Fill-52" fill="#BCBEC0" points="431.917888 182.177801 431.304369 174.214733 350.455995 228.167961 350.933284 236.784813"></polygon>
                            <polygon id="Fill-53" fill="url(#linearGradient-11)" points="350.933284 236.784813 350.455995 228.167961 0 154.584904 0 162.759526"></polygon>
                            <polygon id="Fill-55" fill="#231F20" opacity="0.200000003" points="115.341709 170.466606 152.788006 177.895326 197.553352 166.245743 160.277266 159.492361"></polygon>
                            <polygon id="Fill-55" fill="#FFFFFF" points="114.114669 169.239742 151.560967 176.668462 196.326313 165.018879 159.050226 158.265497"></polygon>
                            <path d="M393.640894,143.656241 C393.640894,143.656241 394.738649,139.482626 392.226585,139.350884 C389.714521,139.217785 390.054172,136.331702 389.714521,134.634006 C389.374869,132.93631 385.741954,130.899075 385.266442,129.031609 C384.789571,127.164144 386.318004,126.145526 387.336959,124.44783 C388.355914,122.750134 382.640255,113.243037 381.677003,106.622022 C380.713751,100.001008 372.052632,89.8148321 369.844896,85.231053 C367.63716,80.6472738 361.183778,74.7053379 358.63639,73.0076419 C356.089002,71.309946 340.125373,66.3866276 334.521119,65.8773189 C334.521119,65.8773189 333.67199,63.1610053 331.294428,62.4819269 C330.547195,62.2686963 327.048782,62.5104482 326.563759,61.3573731 C323.822091,54.842295 318.906652,54.3424933 318.55749,53.993447 C318.048012,53.4841382 323.142788,70.1215588 312.613585,82.5147394 C309.469769,86.2170748 305.141247,84.8915138 305.141247,88.7962145 C305.141247,92.7009153 303.782641,101.876622 303.782641,101.876622 C303.782641,101.876622 299.367169,87.7775969 301.065427,79.6286562 C302.763686,71.4797156 302.763686,65.7075493 302.763686,65.7075493 C302.763686,65.7075493 287.479359,68.763402 281.70528,75.0448771 C275.931201,81.3263522 274.402769,82.684509 273.383814,84.5519746 C272.364858,86.4194401 268.458864,92.7009153 268.968341,96.7753856 C268.968341,96.7753856 265.232173,101.528934 265.74165,106.961561 C265.74165,106.961561 261.496004,110.526723 262.854611,114.770963 C264.213218,119.015203 266.420954,139.350884 266.420954,139.350884 L266.930431,150.88571 C266.930431,150.88571 303.832909,156.771961 308.401904,157.366834 C312.96954,157.961707 321.954007,163.172954 321.954007,163.172954 L354.900221,159.759906 L367.467334,152.799353 L375.788801,150.88571 L375.958627,146.687647 L393.640894,143.656241 Z" id="Fill-54" fill="#314FB4"></path>
                            <polygon id="Fill-56" fill="#414042" points="158.44224 160.719226 121.476906 168.81653 151.490045 174.214733 188.964076 165.273959"></polygon>
                            <path d="M125.158024,158.731412 C130.579426,158.731412 134.97434,157.716211 134.97434,157.038633 C134.97434,156.361054 130.579426,155.811768 125.158024,155.811768 C119.736623,155.811768 115.341709,156.361054 115.341709,157.038633 C115.341709,157.716211 119.736623,158.731412 125.158024,158.731412 Z" id="Oval-2" fill="#231F20" opacity="0.200000003"></path>
                            <path d="M114.36511,139.467456 L116.549443,157.377829 C116.549443,157.377829 119.766278,158.265497 125.770852,158.265497 C131.775426,158.265497 134.889832,156.657847 134.889832,156.657847 L137.314882,139.467456 L114.36511,139.467456 Z" id="Fill-61" fill="url(#linearGradient-12)"></path>
                            <polygon id="Fill-62" fill="#231F20" opacity="0.200000003" points="213.504865 179.502941 309.568411 190.163969 339.889929 166.64608 255.183229 155.811768"></polygon>
                            <polygon id="Fill-63" fill="#B6C5D9" points="213.504865 175.822348 309.568411 186.483376 339.889929 162.965487 255.183229 152.131175"></polygon>
                            <polygon id="Fill-64" fill="#D1D3D4" points="309.213943 188.937105 309.213943 186.207108 213.504865 175.441597 213.504865 177.667153"></polygon>
                            <path d="M190.191116,157.952755 C190.191116,157.952755 191.572671,159.815679 196.753504,159.443094 C201.934338,159.070509 204.957181,158.72326 204.957181,158.72326 L213.504865,157.021293 L209.878282,153.35804 L190.191116,157.952755 Z" id="Fill-65" fill="#414042" opacity="0.200000003"></path>
                            <polygon id="Fill-66" fill="url(#linearGradient-11)" points="309.213943 188.937105 339.889929 165.35444 339.889929 163.172954 309.213943 186.280746"></polygon>
                            <path d="M205.111298,142.862227 C205.111298,142.862227 200.032976,139.961923 197.042861,139.904246 C194.051391,139.847943 194.591724,139.849316 193.092603,139.904246 C191.594837,139.96055 185.756798,140.817458 185.305843,141.362638 C184.854888,141.907818 183.782347,143.084694 184.120902,144.040476 C184.459456,144.997631 186.321508,146.88585 186.321508,146.88585 C186.321508,146.88585 184.516334,146.828173 184.459456,147.800435 C184.402579,148.774069 184.685611,150.203622 184.685611,150.203622 C184.685611,150.203622 186.660063,152.207194 187.280295,152.37885 C187.280295,152.37885 187.167895,154.495029 188.295959,154.896018 L188.803791,155.297007 C188.803791,155.297007 188.183559,156.554904 189.650178,157.356882 C191.118152,158.157487 191.850784,158.443123 192.866449,158.157487 C193.882113,157.871851 197.042861,156.498601 197.042861,156.498601 C197.042861,156.498601 203.644679,156.784237 206.804072,156.498601 C209.963465,156.211592 212.277826,150.490632 212.277826,150.490632 L205.111298,142.862227 Z" id="Fill-67" fill="#EFA1A0"></path>
                            <path d="M191.958445,141.089397 C191.958445,141.089397 191.71343,143.34401 191.222221,143.63297 C190.731013,143.921929 189.749774,141.443918 188.964076,141.392926 C188.964076,141.392926 190.044264,142.961564 190.240982,143.416857 C190.436523,143.872151 191.319992,145.588911 191.319992,145.588911 L191.71343,145.996854 L192.645195,145.588911 C192.645195,145.588911 191.614481,144.984281 191.663956,144.630973 C191.71343,144.276451 192.393112,142.040049 191.958445,141.089397" id="Fill-68" fill="#414042" opacity="0.300000012"></path>
                            <path d="M349.038082,156.486011 C352.374744,155.916975 359.146287,153.610738 364.430718,151.746325 C364.086262,151.017248 363.701688,150.171901 363.288064,149.213021 C361.629416,145.358349 363.217512,143.320216 361.969723,140.926435 C360.721933,138.532654 359.932035,140.926435 359.932035,140.926435 C359.932035,140.926435 361.315394,142.29431 356.646557,149.109062 C351.97772,155.923815 338.66289,157.034529 338.66289,157.034529 L338.673957,157.038633 C342.45191,156.914156 346.247847,156.962032 349.038082,156.486011" id="Fill-84" fill="#231F20" opacity="0.200000003"></path>
                            <path d="M207.369668,152.131175 C207.369668,152.131175 203.845043,150.676806 201.377805,150.010705 C198.910568,149.34315 196.326313,145.52543 196.326313,145.52543 L199.199587,143.543125 C199.199587,143.543125 202.08273,146.738374 203.433367,147.586272 C204.785413,148.434169 207.369668,148.863208 207.369668,148.863208 L207.369668,152.131175 Z" id="Fill-69" fill="#414042" opacity="0.200000003"></path>
                            <path d="M186.490095,147.223977 C186.490095,147.223977 185.84021,147.2098 185.282958,147.391265 L190.191116,150.904311 L186.490095,147.223977 Z" id="Fill-72" fill="#414042" opacity="0.300000012"></path>
                            <path d="M389.700312,134.861745 C389.359501,133.164837 385.714193,131.128548 385.237058,129.261949 C384.758561,127.395351 386.292207,126.377206 387.314639,124.680298 C388.33707,122.983391 382.601912,113.480707 381.635374,106.862767 C380.668836,100.244827 371.97817,90.0633799 369.762903,85.4817289 C368.009774,81.8557764 363.596961,77.3895151 360.561022,74.8387234 C357.549621,75.4102419 354.708626,76.7922036 353.915219,79.8819333 C352.040762,87.1786367 350.166305,99.7357542 349.995899,104.826477 L351.870357,109.212645 C351.870357,109.212645 353.063193,107.032458 353.574409,104.147714 C354.085624,101.262971 355.619271,99.3963726 356.300892,96.6813202 C356.982513,93.9662678 362.946695,92.26936 362.946695,92.26936 C362.946695,92.26936 361.413048,96.1722479 357.493728,98.7176095 C353.574409,101.262971 354.256029,106.184004 354.256029,106.184004 C354.256029,106.184004 354.085624,108.899056 353.149077,110.935345 C352.211167,112.971635 351.018331,112.801944 349.995899,115.007924 C348.973468,117.213904 350.847925,122.304628 352.654221,123.662154 C354.460516,125.01968 352.722383,126.207515 354.085624,127.22566 C355.448866,128.243805 355.601549,136.04958 355.601549,136.04958 C355.601549,136.04958 354.93765,137.916179 357.664134,140.461541 C360.390617,143.006902 362.845815,148.853768 362.845815,148.853768 L363.971852,153.35804 L372.130854,149.118485 L377.431137,145.043192 L386.409446,144.025047 C386.409446,144.025047 388.811958,144.049482 394.075434,145.043192 C394.52397,146.207949 394.741579,139.706756 392.220945,139.575076 C389.700312,139.443396 390.041122,136.558653 389.700312,134.861745 Z" id="Fill-74" fill="url(#linearGradient-13)"></path>
                            <path d="M382.968306,149.961339 C382.968306,149.961339 374.968669,147.533667 371.224158,148.833177 C367.479646,150.132688 354.884473,154.930457 349.948527,155.787202 C345.01258,156.643947 336.876779,155.787202 331.396176,157.329342 C325.915574,158.871483 319.822233,159.042832 318.971208,158.871483 C318.120182,158.700134 305.489606,155.927023 303.040015,157.82694 C300.589062,159.728227 299.397627,171.894001 299.397627,171.894001 L302.801728,177.895326 C302.801728,177.895326 305.865419,174.806933 309.95034,175.663678 C314.035261,176.520422 313.230532,175.689723 319.765044,175.920016 C326.299556,176.15305 325.949615,173.436142 332.076996,174.464235 C338.204378,175.492329 348.619565,174.3861 353.793799,174.510842 C358.969394,174.635584 387.904252,172.408048 390.116918,171.208606 C392.329584,170.009163 395.563479,168.467023 395.052864,161.784415 C394.542249,155.101806 394.201839,155.273155 392.669994,154.58776 C391.138148,153.902364 382.968306,149.961339 382.968306,149.961339" id="Fill-75" fill="#EFA1A0"></path>
                            <path d="M370.017957,149.476761 C373.786348,148.225605 381.837001,150.562944 381.837001,150.562944 C381.837001,150.562944 390.058944,154.357326 391.600559,155.017219 C393.142173,155.677111 393.484754,155.512138 393.998626,161.94609 C393.998626,161.94609 395.882821,154.852245 394.73723,153.202514 C393.591639,151.552783 395.026369,148.418294 394.73723,146.273643 C394.448092,144.128992 393.484754,143.4691 385.434101,142.479261 C377.383448,141.489422 373.957638,145.283804 371.559572,146.438616 C370.245431,147.072113 368.984733,148.74428 368.111837,150.127415 C368.872366,149.863458 369.526011,149.640414 370.017957,149.476761" id="Fill-76" fill="#1FB6FF"></path>
                            <path d="M363.203679,92.0148238 C363.203679,92.0148238 357.22853,93.7244306 356.545656,96.4598013 C355.862782,99.1951721 354.326315,101.075739 353.81416,103.982071 C353.302004,106.888402 352.106974,109.084905 352.106974,109.084905 L350.22907,104.665914 C350.22907,104.665914 348.009729,112.701065 347.839011,116.120279 C347.668292,119.539492 345.961107,120.052374 345.448951,122.787745 C344.936796,125.523116 345.502216,128.600408 346.329859,131.164818 C347.156137,133.729228 349.546196,136.810623 348.521885,141.936708 C347.497574,147.06416 343.571048,152.108184 343.571048,152.108184 C343.571048,152.108184 348.521885,152.876823 351.4241,145.525514 C354.326315,138.174205 355.843661,136.122677 355.843661,136.122677 C355.843661,136.122677 355.692063,128.258486 354.326315,127.232722 C352.960567,126.206958 354.70053,125.010234 352.890914,123.642548 C351.082663,122.274863 349.204759,117.146043 350.22907,114.923554 C351.253382,112.701065 352.448411,112.872026 353.388046,110.820498 C354.326315,108.76897 354.497034,106.033599 354.497034,106.033599 C354.497034,106.033599 353.81416,101.075739 357.740686,98.5113294 C361.667212,95.9469193 363.203679,92.0148238 363.203679,92.0148238" id="Fill-77" fill="#231F20" opacity="0.200000003"></path>
                            <path d="M377.420248,98.1491454 L378.291419,105.64665 C378.291419,105.64665 369.056999,113.484949 365.746547,114.507336 C362.436095,115.529723 363.307266,116.55211 363.307266,116.55211 C363.307266,116.55211 377.942951,109.225004 380.382231,105.476252 L377.420248,98.1491454 Z" id="Fill-78" fill="#231F20" opacity="0.200000003"></path>
                            <path d="M382.83631,125.14016 C382.83631,125.14016 369.066004,136.682371 364.363949,137.037516 C359.661893,137.392661 363.356365,138.635668 363.356365,138.635668 C363.356365,138.635668 381.828727,130.112189 382.83631,125.14016" id="Fill-79" fill="#231F20" opacity="0.200000003"></path>
                            <g id="Group-83" transform="translate(374.247034, 148.450582)" fill="#231F20" opacity="0.200000003">
                                <path d="M20.7446358,8.13963132 C20.7556792,7.86772751 20.7529183,5.89629673 20.7446358,5.64923693 C20.6631911,5.65889849 20.4732252,6.22782207 20.3006728,6.37274542 C19.834091,6.76610879 19.3471673,7.06486463 18.2276471,6.9088995 C18.9703128,7.28708043 19.3370682,9.47074316 19.6518038,11.9634247 C20.1832652,10.9296382 20.273884,10.2970698 20.5541092,9.48273863 L20.7446358,8.13963132 Z" id="Fill-81"></path>
                                <path d="M11.1506012,3.88307349 C10.9297341,3.15431609 11.1261898,0.663625766 11.6245212,0.253699726 C10.1999284,0.666386211 8.61576538,-0.0858349741 3.33151997,0.253699726 C2.79729766,0.288205285 1.46409413,0.761185441 1.01269699,0.815014113 C4.43475665,1.18353348 8.66729744,2.48673656 9.67776444,2.96981438 L11.1506012,3.88307349 Z" id="Fill-82"></path>
                            </g>
                            <path d="M323.367821,94.0086101 C328.306487,95.0434803 324.90051,94.0086101 324.90051,94.0086101 C324.90051,94.0086101 324.8719,80.495965 326.773797,76.4240958 C327.92638,73.9597249 327.682512,67.0840473 327.311942,62.0380202 C326.990418,61.8986577 326.731563,61.7247995 326.628022,61.4750508 C323.878717,54.856021 318.949587,54.3482447 318.599453,53.9936292 C318.088556,53.4761941 323.197522,70.379074 312.638993,82.9699947 C311.561342,84.2546136 310.347452,84.9390077 309.213943,85.4467841 C312.697576,88.118129 319.738412,93.2483255 323.367821,94.0086101" id="Fill-85" fill="#231F20" opacity="0.200000003"></path>
                            <path d="M323.561161,91.9820069 C323.561161,91.9820069 325.394935,76.7142809 327.562123,74.4473377 C329.238526,72.6938708 329.310544,65.9736133 327.562123,61.8302966 C327.091343,61.68554 326.71792,61.4779645 326.585888,61.1543105 C326.239138,60.3117178 325.857713,59.5729128 325.45495,58.9174111 C325.092196,58.5159164 323.862567,57.1366317 322.866327,55.9157598 C321.404642,54.720835 320.032312,54.2360369 319.286799,53.98203 L318.857363,54.9434324 C319.502851,58.9351643 321.429982,72.1325975 312.891928,82.4280703 C310.53136,85.27404 307.498631,85.1716179 306.198318,86.7188749 L305.580836,88.4245448 C305.572834,88.5324294 305.55683,88.6280234 305.55683,88.7441018 C305.55683,89.0404432 305.547495,89.3750222 305.532824,89.7259887 C306.919825,87.9820812 309.751172,84.785145 311.22486,85.6659754 C313.225341,86.8609002 322.394213,92.4941175 323.561161,91.9820069" id="Fill-86" fill="#1FA4FF"></path>
                            <path d="M306.801977,85.8805022 C308.340313,85.0817694 310.61267,84.6589896 312.480842,82.4822085 C316.943097,77.2844245 318.576057,71.3360726 319.030258,66.2506732 C316.895784,70.9467405 312.484897,79.1120109 307.035837,80.642581 C302.535732,81.9082447 304.43094,84.1920586 306.801977,85.8805022" id="Fill-87" fill="#231F20" opacity="0.100000001"></path>
                            <g id="Group-92" transform="translate(337.435850, 69.931266)" fill="#231F20" opacity="0.200000003">
                                <path d="M7.37212255,0.802883253 C6.43098329,-0.940736315 6.71998383,1.96009832 6.71998383,1.96009832 C6.71998383,1.96009832 6.05533746,7.2462886 6.05533746,8.31513279 C6.05533746,9.18424348 5.44740412,11.890925 4.48366688,12.9867602 C4.90771126,13.4321119 5.73497791,14.0966082 6.05533746,14.0601703 C6.67744646,13.9886441 7.64384229,12.8037386 8.33374522,11.8428585 C8.09580182,11.2949408 7.95888467,10.7726647 7.93894528,10.4514716 C7.88311498,9.55132128 8.3145911,2.54650282 7.37212255,0.802883253 Z" id="Fill-89"></path>
                                <path d="M1.89319048,1.22686432 C1.89319048,1.22686432 -0.156578929,1.84495856 0.0095826639,2.51973394 C0.0109119566,2.52783124 0.0095826639,2.5372781 0.0109119566,2.5453754 C1.10093201,3.72893141 2.2188672,5.21343723 2.63892371,6.67904935 C2.65221664,4.36996801 2.51529949,1.65872056 1.89319048,1.22686432" id="Fill-90"></path>
                                <path d="M11.7828816,4.14366062 C11.6778674,4.70507373 11.0690514,8.58908079 11.1793826,9.09381277 C11.2338837,9.33808146 11.3747887,10.3839833 11.321617,11.3745535 C11.7150876,12.2139741 11.943726,12.6120916 12.2321825,11.7348836 C12.620336,10.5540267 12.3983441,4.34204458 13.1733218,3.87779912 C13.4484854,3.71180438 14.2040314,3.06874925 14.3356314,2.63419391 C13.2748558,1.91623291 11.7828816,1.72526568 11.7828816,1.72526568 C11.7828816,1.72526568 11.889225,3.58089796 11.7828816,4.14366062 Z" id="Fill-91"></path>
                            </g>
                            <path d="M311.077978,53.3817342 C311.077978,53.3817342 311.077978,44.4638923 314.107109,43.7779044 C314.107109,43.7779044 316.10095,37.7755108 318.806973,40.1764683 C321.51165,42.5774257 321.343365,44.2923953 321.343365,44.2923953 C321.343365,44.2923953 325.21392,38.9759895 325.045635,33.1450929 C324.87735,27.3141962 327.159295,19.2620709 317.43646,16.1710097 C317.43646,16.1710097 316.799669,7.93503967 313.770539,6.90605791 C310.741408,5.87707615 302.902019,5.87707615 299.922701,6.90605791 C296.942037,7.93503967 286.171795,12.9084515 281.29153,11.8794698 C276.411264,10.850488 274.798421,9.30701536 274.798421,9.30701536 C274.798421,9.30701536 273.213849,12.2306955 272.877279,16.1710097 C272.540709,20.1113239 271.026143,27.3141962 276.074694,29.0291658 C281.123245,30.7441354 288.022931,32.2876081 295.932327,28.8576689 C303.841723,25.4277297 304.955096,28.343178 304.955096,28.343178 C304.955096,28.343178 305.356288,37.2610199 303.336867,38.6329956 C301.317447,40.0049713 299.298027,41.548444 303.168582,43.4349105 C307.039138,45.3213771 308.140395,49.4373041 307.674582,52.3527525 C307.207423,55.2682008 311.077978,53.3817342 311.077978,53.3817342" id="Fill-93" fill="url(#linearGradient-14)"></path>
                            <path d="M287.328717,50.301437 C287.573591,51.1141184 287.987993,51.654864 288.489333,51.9330511 C288.987774,52.2159267 289.586194,52.3440803 290.225185,52.4128456 C290.875767,52.4722339 291.556777,52.4847367 292.266767,52.4941138 C292.976757,52.5206822 293.702685,52.5003652 294.489469,52.6457101 C293.212937,53.6115506 291.703122,54.0757167 290.086085,53.9663173 C289.289158,53.8522293 288.405293,53.5927964 287.766302,52.8645089 C287.104128,52.1674784 286.953437,51.0500416 287.328717,50.301437" id="Fill-94" fill="#603913"></path>
                            <path d="M291.484534,60.4583705 C289.300399,59.8655914 289.232102,58.2760551 289.232102,58.2760551 C289.232102,58.2760551 288.378391,61.5731283 286.329484,61.2260679 C284.280577,60.8790076 286.329484,61.2260679 282.573154,62.4407791 C281.036474,62.9377695 279.932796,62.4435556 279.161041,61.6911288 C278.987567,63.4500306 282.060927,64.349611 283.426866,66.075195 C284.792804,67.7993907 285.395717,73.9251647 285.395717,73.9251647 C287.522483,79.6794251 294.145335,78.5782812 297.837466,77.2663931 L298.784107,72.3861401 C298.784107,72.3861401 298.281442,64.1760808 296.744762,64.349611 C295.208082,64.5231411 293.671401,61.0525378 291.484534,60.4583705 Z" id="Fill-95" fill="#231F20" opacity="0.049999997"></path>
                            <path d="M316.086028,44.2720991 C316.086028,44.2720991 317.569009,45.476983 317.439572,46.3352564 C317.175767,48.0733871 318.243315,49.3506402 316.086028,49.5093446 C313.928741,49.668049 313.774649,49.9829185 314.545109,50.6977232 C314.545109,50.6977232 314.660986,51.7312063 315.277354,51.4925149 C315.893722,51.2550931 315.277354,50.3422253 316.278335,49.9054708 C317.280549,49.4699859 317.896917,49.5093446 318.319745,48.7551812 C318.743806,48.0022875 319.321959,47.1681372 318.859683,46.3352564 C318.397407,45.5023757 317.434641,43.7172685 316.086028,44.2720991" id="Fill-96" fill="#231F20"></path>
                            <path d="M317.803219,41.7578627 C317.803219,41.7578627 318.417279,41.9566255 318.800453,43.0714813 C319.184855,44.1863371 319.607329,44.2666067 319.607329,44.6641324 C319.607329,45.0629323 320.105946,46.7447719 319.760844,47.3372381 C319.760844,47.3372381 319.421882,48.8445231 318.843437,49.0037882 C318.263764,49.1630533 318.843437,49.0037882 318.843437,49.0037882 C318.843437,49.0037882 319.760844,48.7655276 320.067874,47.7296673 C320.374904,46.6950811 320.259461,45.3011929 320.067874,45.1826996 C319.875059,45.0629323 319.491885,43.9761071 319.568029,43.6422875 C319.6454,43.311016 319.491885,41.3998347 317.803219,41.7578627" id="Fill-97" fill="#231F20"></path>
                            <path d="M283.446114,50.301437 C284.265006,49.3683725 285.288945,48.7841639 286.333648,48.3952479 C287.38484,47.9996552 288.484049,47.8444227 289.579365,47.847761 C291.760913,47.937896 293.939865,48.705713 295.716509,50.301437 C294.631575,50.1628961 293.615423,49.9258744 292.591484,49.7890026 C291.574034,49.6270934 290.563073,49.55365 289.556005,49.5169284 C287.534083,49.4802067 285.540711,49.6988676 283.446114,50.301437" id="Fill-98" fill="#231F20"></path>
                            <path d="M279.764996,49.0745727 C278.341313,48.8489425 277.119902,48.2259524 275.993144,47.4613166 C275.447269,47.0539287 274.911767,46.6214708 274.465732,46.0824653 C274.039145,45.5597553 273.577551,44.8979066 273.634602,44.1671154 C274.089713,44.6986 274.634292,44.9906657 275.156827,45.3679696 C275.693626,45.7176964 276.226534,46.0812118 276.759443,46.4509947 C277.810998,47.2156304 278.858662,47.9965617 279.764996,49.0745727" id="Fill-99" fill="#231F20"></path>
                            <path d="M282.219075,65.0238088 C282.901867,65.5627363 283.611971,66.1307165 284.092408,66.8294339 C284.332006,67.1766136 284.524429,67.735878 284.679609,68.40409 C285.17991,68.5086797 285.742282,68.598743 286.420108,68.6553958 C292.937669,69.2001338 294.489469,65.0238088 294.489469,65.0238088 C288.907954,67.2013084 282.230248,65.0281667 282.219075,65.0238088" id="Fill-100" fill="#FFFFFF"></path>
                            <path d="M298.576765,65.6675359 C298.153228,64.535137 297.529648,63.575522 296.613594,63.4931174 C296.613594,63.4931174 297.932492,65.0401976 294.829771,67.3621469 C293.582612,68.3018253 292.171281,69.1019476 289.534865,69.2361873 C287.37855,69.3465032 286.316258,69.6721343 284.673154,69.3451741 C285.016674,71.7269333 285.016674,74.3811593 285.016674,74.3811593 C287.948325,81.9039031 298.985127,76.9915248 300.019827,76.3814649 C302.6659,75.286281 303.117029,74.6456515 306.203195,72.9643316 C309.289361,71.2830116 311.612167,60.3559162 312.306106,57.0956175 C310.051839,56.8962515 308.421592,56.3026502 307.418623,53.98203 C307.418623,53.98203 301.066943,62.7514759 298.576765,65.6675359 Z" id="Fill-101" fill="url(#linearGradient-15)"></path>
                            <path d="M312.831827,13.6891908 C312.781929,12.7605463 312.077961,12.2263574 311.407707,11.9614462 C310.703739,11.6907129 309.921552,11.6266684 309.152851,11.6121129 C307.599266,11.5975573 306.025452,11.8202573 304.457033,12.1070018 C302.904796,12.4024796 301.351211,12.764913 299.797626,13.2117686 C298.241344,13.6324241 296.674273,14.0676353 295.108551,14.5392353 C291.956877,15.4009243 288.780929,16.3091911 285.482258,16.8244578 C283.831574,17.07918 282.155266,17.2567578 280.438501,17.1388578 C279.586187,17.0558911 278.714992,16.93508 277.893696,16.5697355 C277.073748,16.2291355 276.315836,15.5333799 276.083877,14.6600465 C276.59095,15.3892799 277.347514,15.6905799 278.090591,15.7924688 C278.848504,15.889991 279.629342,15.8361355 280.403437,15.7109577 C281.955674,15.4984465 283.505213,15.0326687 285.053403,14.6003687 C288.147087,13.6586241 291.258303,12.6455574 294.424812,11.7241906 C297.604806,10.8741461 300.837395,10.0139127 304.23856,9.8567127 C305.910821,9.75336824 307.62489,9.83196825 309.31738,10.2016794 C310.15486,10.438935 311.009871,10.687835 311.756994,11.2525906 C312.114373,11.5568017 312.469054,11.8726573 312.678087,12.3209685 C312.883074,12.7547241 312.961292,13.2598019 312.831827,13.6891908" id="Fill-102" fill="#FFFFFF" opacity="0.200000003"></path>
                            <path d="M273.004089,93.8450413 C273.421232,95.5422054 274.314157,97.136713 275.13778,98.547239 C276.83034,101.441617 278.553552,104.290666 280.104843,107.222374 C280.880488,108.687561 281.586832,110.188745 282.161236,111.74059 C282.775622,113.280436 283.202093,114.889609 283.436653,116.55211 C283.504622,114.868278 283.198095,113.180446 282.783618,111.539277 C282.322495,109.906106 281.705444,108.324931 281.02842,106.777085 C279.665044,103.678727 277.948495,100.77635 276.289254,97.8806389 C275.412321,96.4167848 274.648671,95.0649197 274.216868,93.5090748 C273.737087,91.9718948 273.561168,90.3347247 273.421232,88.700221 C273.354596,87.7643144 273.339936,86.8230749 273.35193,85.8805022 C273.076056,86.3751196 272.764199,86.9430629 272.44701,87.5563351 C272.432351,87.9496292 272.403031,88.3415901 272.403031,88.7362174 C272.395034,90.4387143 272.562957,92.1585428 273.004089,93.8450413" id="Fill-103" fill="#231F20" opacity="0.300000012"></path>
                            <g id="Group-106" transform="translate(245.407891, 72.384995)" fill="#231F20" opacity="0.200000003">
                                <path d="M29.9830899,9.90015996 C31.2097909,8.51936026 33.0539042,6.57088321 36.048896,3.26903049 C36.6446448,2.61359627 37.3446496,1.99518449 38.1137072,1.40968153 C37.3947467,1.28215981 36.6500607,1.24376618 35.8796492,1.34112147 C30.1252572,2.06922936 29.4482699,-2.21577469 30.1252572,2.06922936 C30.8022445,6.35423341 29.9830899,9.90015996 29.9830899,9.90015996" id="Fill-104"></path>
                                <path d="M17.2631758,43.3761199 C15.9092012,39.0911159 20.1403718,35.4917125 20.1403718,35.4917125 C19.6326313,30.0069073 23.3560614,25.2077028 23.3560614,25.2077028 C22.8483209,21.0940989 26.7409978,14.7522929 27.7564787,12.8668911 C28.2425556,11.9632694 28.8531981,11.1720863 29.9837669,9.89961148 C29.9837669,9.89961148 28.0949724,9.61028801 24.7100359,12.3526906 C21.3250995,15.0950932 22.3405804,18.1802961 18.7863972,19.0372969 C15.2322139,19.8942977 14.8937203,22.4653002 10.8317966,20.4084982 C8.16040474,19.0564937 3.42013977,18.0815696 0.296520431,18.1515009 C0.576793168,19.6831327 0.846234107,20.774609 1.32554111,21.4574672 C4.37062992,23.1577568 8.02636126,25.2515812 8.12384743,25.5505031 C8.29309425,26.0647036 12.355018,27.2795879 11.8472775,30.3565636 C11.339537,33.4349105 10.8317966,34.8061118 6.60062604,34.977512 C2.3694555,35.1489121 7.44686014,36.8683986 8.12384743,37.1220708 C8.80083472,37.3771143 10.8317966,36.1773131 9.81631564,38.2341151 C8.80083472,40.290917 9.477822,42.347719 9.477822,42.347719 L17.5082452,44.28934 C17.4242988,43.9355701 17.3430603,43.6256786 17.2631758,43.3761199" id="Fill-105"></path>
                            </g>
                            <path d="M225.77526,22.7531674 C225.77526,22.7531674 228.145369,32.3757525 229.330424,34.2659031 C230.515478,36.1560537 231.53124,36.1560537 231.53124,38.2180362 C231.53124,40.2800188 232.885588,39.4964654 234.409229,42.3791169 C235.932871,45.2631431 234.239936,51.0779338 237.964393,51.8656111 C241.688851,52.6519138 244.228254,55.2403892 248.629885,59.7025193 C253.031517,64.1646495 251.17606,63.3838454 255.232333,62.8463553 C259.126084,62.3308597 262.245148,65.0238088 262.245148,65.0238088 L271.17572,45.2631431 L265.559238,34.2659031 C265.559238,34.2659031 269.114402,35.6405581 269.622282,32.0320887 C270.130163,28.4236193 264.71277,31.3447612 264.882064,28.7672831 C265.051357,26.189805 263.866303,25.6743093 263.866303,25.6743093 C263.866303,25.6743093 261.299813,27.9081237 262.245148,29.1109468 C263.189128,30.31377 260.592843,27.8503882 259.238495,25.9602376 C257.884147,24.0700869 258.618203,14.1615737 258.618203,14.1615737 L242.497397,9.81491454 L225.77526,22.7531674 Z" id="Fill-107" fill="#FCBEBD"></path>
                            <path d="M276.083877,29.210873 C271.263402,27.6012383 272.37655,21.1191958 272.796017,17.1195798 C272.023601,15.946341 271.385576,15.1333667 270.993259,14.9362408 C268.957012,13.9166242 258.806999,-3.07698551 249.628954,0.49167254 C240.449551,4.06033059 240.279864,5.75969156 237.564868,6.52508375 C234.849872,7.28911644 225.177697,15.276113 223.820199,22.0735569 C222.462701,28.8710008 223.820199,34.1390198 225.00801,36.0083169 C226.195821,37.877614 217.372083,55.7209042 222.462701,63.1980925 C227.553319,70.6752808 233.662061,68.6360476 232.813624,74.9236832 C231.965188,81.2113189 232.304563,82.3070668 228.74113,82.8630977 C225.177697,83.4204881 232.134875,86.6329601 233.492374,86.3012449 C234.849872,85.9695296 240.788926,87.1590823 242.146424,84.7799769 C243.503922,82.4008715 242.404349,89.6523847 246.685898,90.0194467 C250.967447,90.3878681 257.73186,93.0674205 263.42928,91.5570285 C269.1267,90.0479959 264.021149,83.9302964 261.56815,80.3616384 C259.288911,77.0458452 254.738577,68.8875531 254.51459,62.5672897 C252.816359,63.1681838 253.325421,62.837828 249.782351,59.2950002 C245.370482,54.8820997 242.825173,52.3221823 239.092053,51.5445547 C235.358933,50.7655676 237.055806,45.0149301 235.528621,42.1627226 C234.001435,39.3118747 232.643937,40.0867833 232.643937,38.0475501 C232.643937,36.0083169 231.625814,36.0083169 230.438003,34.1390198 C230.280533,33.8902334 230.277818,33.638728 230.376915,33.3899415 C230.28732,31.819732 230.302253,28.0947327 232.134875,25.4722789 C232.134875,25.4722789 238.413304,27.511512 241.976737,27.1716398 C245.540169,26.8317677 253.685158,28.3611925 258.266714,25.4722789 C258.266714,25.4722789 260.877396,27.1716398 261.547787,29.7777798 C262.931448,35.1567425 264.4288,26.1837886 264.4288,26.1837886 C264.4288,26.1837886 265.223892,26.6618316 265.054205,29.210873 C264.884518,31.7599145 269.961953,28.3441915 269.452892,31.9128496 C268.94383,35.4815076 264.871342,34.4944764 266.072329,34.4944764 L272.38198,45.0149301 L274.991091,43.6391274 C274.973444,43.3033337 274.984304,42.9661805 275.065754,42.6358247 C275.574816,40.5965916 274.366642,34.478892 274.970729,33.6292116 C275.574816,32.7795311 276.083877,29.210873 276.083877,29.210873 Z" id="Fill-108" fill="url(#linearGradient-16)"></path>
                            <path d="M252.770128,33.2762848 C251.848208,33.3986603 250.9504,33.6622384 250.099398,33.9917111 C249.24414,34.3063911 248.417249,34.6829312 247.655602,35.1509168 C246.888281,35.6135233 246.233009,36.2011949 245.484127,36.6651462 C244.715388,37.1183392 243.986362,37.6199445 243.061606,38.0327938 L242.953812,37.944038 C243.295632,37.0389968 243.879987,36.2590207 244.597666,35.6162129 C245.29407,34.9384406 246.245774,34.583417 247.12798,34.1974634 C248.917922,33.4497622 250.852535,33.035568 252.770128,33.1418061 L252.770128,33.2762848 Z" id="Fill-109" fill="#603913"></path>
                            <path d="M233.137497,40.6040694 C233.95812,40.3889331 234.812503,40.5054082 235.626634,40.6643624 C236.445958,40.8342789 237.247105,41.0713399 238.036565,41.3769157 L238.045654,41.3810265 L238.054744,41.3865077 C239.142848,42.0579521 240.050468,43.0020852 240.693203,44.1503922 C241.358012,45.2891071 241.61121,46.6717345 241.705997,47.9351463 C241.769622,48.5750739 241.803382,49.212261 241.883886,49.8288936 C241.951405,50.4441559 242.051386,51.0621589 242.314973,51.5582056 C242.573365,52.0487711 243.042107,52.3557171 243.625113,52.3817527 C244.195135,52.4173804 244.801513,52.313238 245.385817,52.1488026 L245.407891,52.2132065 C244.850854,52.4680813 244.267848,52.7202155 243.619919,52.7476214 C242.987572,52.8092847 242.224081,52.4913763 241.867006,51.8514486 C241.169736,50.6044804 241.176228,49.2574807 241.03989,48.0009204 C240.954192,46.7210651 240.824347,45.5083543 240.253027,44.4107482 C239.710273,43.3241045 238.866278,42.3717496 237.888541,41.7071567 L237.905421,41.7153785 C237.154915,41.387878 236.374543,41.0905241 235.579889,40.880869 C234.789131,40.6739545 233.960717,40.5108894 233.154376,40.6698436 L233.137497,40.6040694 Z" id="Fill-110" fill="#FFFFFF" opacity="0.200000003"></path>
                            <path d="M247.380537,41.7133868 C247.311949,41.7133868 247.24336,41.7046231 247.174772,41.6841746 C246.779644,41.5731681 246.551514,41.1714998 246.663342,40.7858983 C246.685708,40.7099465 247.219504,38.9192364 248.828346,38.266343 C249.87208,37.8442262 251.067902,37.9946692 252.38748,38.7147508 C252.746823,38.9119334 252.876544,39.3559594 252.675253,39.7079668 C252.473961,40.0628955 252.0177,40.1841263 251.66283,39.9898649 C250.763727,39.4990993 250.004783,39.3720261 249.406873,39.613027 C248.466021,39.9884043 248.100714,41.174421 248.09624,41.1875666 C248.002304,41.5045193 247.702604,41.7133868 247.380537,41.7133868" id="Fill-111" fill="#603913"></path>
                            <path d="M237.593355,45.3939798 C237.234374,45.3939798 236.917804,45.1836652 236.851157,44.8801574 C236.828437,44.7768892 236.652733,43.8512534 237.435828,43.2920938 C238.01141,42.8790209 238.868724,42.8299056 239.986565,43.1434883 C240.381898,43.2555721 240.593955,43.6132327 240.459148,43.9431873 C240.32434,44.2718825 239.897198,44.4507128 239.49732,44.3373696 C238.818739,44.1434269 238.49914,44.1912829 238.42492,44.2454357 C238.338582,44.3058854 238.318891,44.5325717 238.343127,44.6622867 C238.408258,45.0023162 238.13107,45.3272332 237.722104,45.3851642 C237.679693,45.391461 237.635767,45.3939798 237.593355,45.3939798" id="Fill-112" fill="#603913"></path>
                            <path d="M241.726773,52.6921004 C243.522734,53.7721696 245.250178,55.4115603 247.429577,57.6626229 C247.429577,57.6626229 254.895402,57.4766416 255.444863,53.6881336 C255.993007,49.8996256 257.678286,47.7587741 257.678286,47.7587741 L253.577748,47.0286253 C253.577748,47.0286253 248.636548,46.1111175 248.965961,47.0286253 C249.295374,47.9475107 249.295374,48.8663961 247.697061,49.7839039 C246.100065,50.7027893 246.880115,49.6695598 245.960393,51.4067629 C245.322649,52.6108197 243.057603,52.7320519 241.726773,52.6921004" id="Fill-113" fill="#231F20" opacity="0.0399999991"></path>
                            <path d="M245.407891,53.0754351 C245.407891,53.0754351 247.369922,54.5843005 249.882296,52.6763511 C249.882296,52.6763511 255.661566,49.7119226 256.451246,47.8477084 C256.451246,47.8477084 255.099054,55.2088943 250.928893,55.2088943 C246.760083,55.2088943 245.407891,53.0754351 245.407891,53.0754351" id="Fill-114" fill="#FFFFFF"></path>
                            <path d="M275.072828,43.3173561 C270.042714,42.9812503 266.036524,34.3522009 266.036524,34.3522009 C266.036524,34.3522009 266.846188,31.8188478 267.424141,42.2869866 C268.002094,52.7551253 260.816306,57.0393423 260.738599,58.5518184 C260.659505,60.0642945 258.519799,61.7448235 255.224207,62.3605693 C257.03366,66.2728408 261.350539,71.0226879 266.036524,71.1557858 C271.933899,71.3238387 276.087461,62.0946536 277.995435,57.2211195 C279.903409,52.3475854 277.995435,46.4495144 277.995435,46.4495144 C277.995435,46.4495144 275.837032,45.5994556 275.072828,43.8693852 L275.072828,43.3173561 Z" id="Fill-115" fill="#F1B6B5"></path>
                            <path d="M279.579306,49.0745727 C280.539999,50.1330076 280.597014,51.6286506 280.500089,52.9481052 C280.388911,54.3106281 279.898587,55.5961501 279.606388,56.8581804 C279.315614,58.1267362 279.054773,59.43575 279.220115,60.6821191 C279.309912,61.2876849 279.562201,61.9141322 280.16798,62.1686264 C280.755229,62.4583582 281.51067,62.3826625 282.219075,62.269119 C281.554856,62.5157826 280.792288,62.6958862 280.024018,62.4596633 C279.232943,62.2051691 278.840969,61.4364661 278.681328,60.7747811 C278.364898,59.3913767 278.631441,58.0301589 278.910811,56.7172298 C279.238644,55.3938598 279.728969,54.1657621 279.959877,52.8867655 C280.073906,52.2472673 280.132346,51.5986333 280.092436,50.9526095 C280.06963,50.3078908 279.941347,49.6501212 279.579306,49.0745727" id="Fill-116" fill="#FFFFFF" opacity="0.200000003"></path>
                            <path d="M239.272694,9.39389005 C241.089567,7.2983165 243.683711,5.78529622 246.538797,5.20139445 C249.395271,4.56894658 252.439123,5.00046751 255.108219,6.08061836 C256.483713,6.57282193 257.685708,7.35495363 258.908524,8.09258473 C259.526177,8.45668052 260.031404,8.95832361 260.596314,9.38310203 C261.140404,9.83350201 261.716418,10.2515379 262.211929,10.7464385 C263.176579,11.7632097 264.178704,12.7435713 265.057299,13.8169797 C265.874822,14.9443281 266.722881,16.0366155 267.494601,17.1761004 C266.474432,16.2227089 265.529214,15.2248167 264.552072,14.2592886 C263.566603,13.3045485 262.48675,12.4522947 261.4874,11.5285702 C260.39228,10.7194684 259.320755,9.8753056 258.178443,9.15520503 C257.001432,8.49174159 255.861896,7.758156 254.583561,7.32798357 C252.111559,6.30581835 249.396659,5.85811538 246.730339,6.23299919 C244.072347,6.6065345 241.462935,7.67994283 239.272694,9.39389005" id="Fill-117" fill="#FFFFFF" opacity="0.200000003"></path>
                            <path d="M239.272694,10.9341071 C241.861791,9.99391058 244.698865,9.65238059 247.493276,9.8857814 C250.283688,10.1139076 253.0781,10.8549881 255.559206,12.206603 C258.002983,13.5885468 260.293441,15.3067459 262.027949,17.4917467 C262.254595,17.7541578 262.494573,18.004701 262.70922,18.2776613 L263.295833,19.1347829 L264.445062,20.8543007 C265.102335,22.0648202 265.700947,23.3017126 266.267562,24.5372864 C265.432971,23.4414893 264.729036,22.2823972 263.902445,21.2156104 L262.603896,19.6648797 L261.967955,18.886877 C261.742642,18.638971 261.491998,18.4148008 261.254686,18.1787626 L259.82815,16.7730832 C259.326862,16.3339732 258.784245,15.9436532 258.268292,15.5282789 L257.488364,14.908514 L256.643107,14.3810546 C256.069826,14.0500738 255.544541,13.6320622 254.932597,13.3696511 C252.610142,12.0747381 250.015713,11.328383 247.375954,10.9037781 C244.725529,10.5147768 241.987113,10.4910411 239.272694,10.9341071" id="Fill-118" fill="#FFFFFF" opacity="0.200000003"></path>
                            <path d="M238.045654,15.9492361 C239.892447,16.123222 241.737879,16.2781256 243.583311,16.404967 C245.428743,16.5250734 247.272816,16.6507922 249.120968,16.6698745 C250.9664,16.7248765 252.815912,16.728244 254.655905,16.6216075 C256.494537,16.5172159 258.32909,16.3320051 260.132365,15.9492361 C258.405247,16.5306858 256.548935,16.8191657 254.696703,17.003254 C252.839031,17.1918323 250.9664,17.1850973 249.103289,17.16826 C245.377066,17.0402961 241.661722,16.6833444 238.045654,15.9492361" id="Fill-119" fill="#FFFFFF" opacity="0.200000003"></path>
                            <path d="M238.045654,22.0835577 C240.405263,22.2413255 242.760751,22.3870416 245.116239,22.5053674 C247.471728,22.6171196 249.825842,22.7409234 252.184077,22.756262 C254.538192,22.8143293 256.896427,22.8154249 259.246422,22.7179156 C261.595042,22.621502 263.94229,22.4505869 266.267562,22.0835577 C264.010963,22.6729957 261.644487,22.9534717 259.283505,23.1375341 C256.915656,23.3248833 254.538192,23.3183097 252.166222,23.3040668 C249.795626,23.241617 247.427777,23.1254824 245.072289,22.9227946 C242.7168,22.71682 240.366806,22.4648298 238.045654,22.0835577" id="Fill-120" fill="#FFFFFF" opacity="0.200000003"></path>
                            <path d="M265.622018,71.1558189 C268.427706,71.2399513 270.653315,69.0172266 272.402759,66.1607946 C270.636215,67.436351 268.964377,67.8787247 263.64896,67.0848945 C260.709104,66.6452346 258.298028,65.2760471 256.451246,63.7969445 C258.474288,67.3223651 261.898201,71.04319 265.622018,71.1558189" id="Fill-121" fill="#231F20" opacity="0.200000003"></path>
                            <polygon id="Fill-122" fill="url(#linearGradient-17)" points="219.826234 101.829738 217.185984 112.22463 233.86018 114.098382 236.818615 103.196555"></polygon>
                            <polygon id="Fill-123" fill="#231F20" opacity="0.200000003" points="227.002299 113.34224 233.889931 114.098382 236.818615 103.559819 230.411952 103.056603"></polygon>
                            <polygon id="Fill-124" fill="#FFD460" points="250.875751 361.924974 250.316049 361.822393 250.983386 355.790652 251.543088 355.894698"></polygon>
                            <path d="M137.428419,139.2491 C137.428419,140.264944 132.208675,141.089397 125.772236,141.089397 C119.333029,141.089397 114.114669,140.264944 114.114669,139.2491 C114.114669,138.233256 119.333029,137.408804 125.772236,137.408804 C132.208675,137.408804 137.428419,138.233256 137.428419,139.2491" id="Fill-125" fill="#F0F0F0"></path>
                            <path d="M125.77231,141.702829 C129.377166,141.702829 132.732958,140.848382 135.072899,140.281571 C133.771965,139.843962 130.671769,139.559311 125.77231,139.427618 C121.215237,139.472348 118.147383,139.756999 116.568748,140.281571 C118.908689,140.848382 122.165923,141.702829 125.77231,141.702829 Z" id="Fill-126" fill="url(#linearGradient-18)"></path>
                            <path d="M192.743882,147.69033 C192.743882,147.69033 192.521836,146.771411 192.743882,146.235805 C192.965928,145.700199 194.129342,145.485956 194.738307,144.786442 C195.347272,144.086927 196.28997,142.473656 197.231339,142.527862 C198.172708,142.582068 199.607364,142.513665 201.471487,141.686379 C203.33561,140.860384 204.322186,139.40844 205.541445,140.000833 C206.760703,140.591936 207.369668,144.840648 207.369668,144.840648 L205.929693,146.345507 C205.929693,146.345507 201.330548,147.152143 200.943629,146.722368 C200.555381,146.292592 200.555381,145.861526 199.780214,146.399713 C199.003718,146.937901 195.957566,149.787583 192.743882,147.69033" id="Fill-127" fill="#EFA1A0"></path>
                            <path d="M201.714409,141.618057 C199.777322,142.414315 198.287893,142.480152 197.308296,142.427979 C196.330081,142.375806 195.351866,143.928571 194.717684,144.60185 C194.084884,145.275129 192.875932,145.481336 192.645195,145.996854 C192.645195,145.996854 195.351866,144.964576 195.753929,144.549677 C196.157374,144.13602 197.597063,143.101258 198.171833,142.893809 C198.747986,142.686359 200.935153,142.531083 201.85672,142.531083 C202.778287,142.531083 204.476347,141.133594 204.476347,141.133594 L206.142629,140.121192 C206.077691,140.071503 206.011371,140.025541 205.94367,139.995728 C204.678069,139.425553 203.651496,140.821799 201.714409,141.618057" id="Fill-128" fill="#FFFFFF" opacity="0.200000003"></path>
                            <path d="M395.052864,162.714646 C394.900361,160.669461 394.761473,159.263659 394.6008,158.265497 C391.528939,161.803038 386.971529,165.108838 380.41523,165.855714 C365.096776,167.600752 313.014031,168.647775 303.142138,168.647775 C301.645695,168.647775 300.576808,168.964674 299.830629,169.495165 C299.543323,171.515221 299.397627,173.01037 299.397627,173.01037 L302.801728,179.12219 C302.801728,179.12219 305.865419,175.976934 309.95034,176.849453 C314.035261,177.721972 313.230532,176.875978 319.765044,177.111907 C326.299556,177.347836 325.949615,174.580904 332.076996,175.627926 C338.204378,176.674949 348.619565,175.548353 353.793799,175.675391 C358.969394,175.80243 387.904252,173.533881 390.116918,172.312354 C392.329584,171.090828 395.563479,169.520294 395.052864,162.714646" id="Fill-129" fill="#231F20" opacity="0.100000001"></path>
                            <ellipse id="Oval" fill="#231F20" opacity="0.200000003" cx="339.276409" cy="193.23113" rx="14.1109537" ry="4.29402511"></ellipse>
                            <path d="M355.840619,167.694243 C355.748987,169.672603 348.258405,170.900649 339.111608,170.435828 C329.963444,169.971007 322.621936,167.992646 322.7122,166.012852 C322.8052,164.034492 330.294414,162.806445 339.442578,163.271266 C348.589375,163.736088 355.930883,165.715883 355.840619,167.694243" id="Fill-130" fill="#FFFFFF"></path>
                            <path d="M322.711377,165.626683 L324.642585,190.265052 C324.642585,190.265052 326.453434,196.771311 338.762834,196.27083 C351.072234,195.770348 352.884451,192.934286 352.884451,192.934286 L355.841442,167.190854 L322.711377,165.626683 Z" id="Fill-131" fill="#FFFFFF"></path>
                            <path d="M325.165456,168.128363 C327.942321,169.374187 333.384103,170.322032 339.660037,170.503215 C345.35029,170.667928 350.385236,170.163309 353.387363,169.260386 C350.610498,168.014562 345.168716,167.066718 338.892782,166.884037 C333.202529,166.720822 328.167583,167.223943 325.165456,168.128363" id="Fill-132" fill="url(#linearGradient-18)"></path>
                            <path d="M319.900231,168.619967 C321.148422,166.74255 323.664774,170.414845 323.664774,170.414845 L324.091299,171.468269 L324.670459,178.895398 C324.392291,178.747107 324.064195,178.575034 323.664774,178.366587 C320.296799,176.617876 318.652041,170.497384 319.900231,168.619967 Z M323.664774,166.005293 C323.664774,166.005293 318.652041,164.376893 316.690598,167.874317 C314.757686,171.322776 313.147164,174.606158 325.165456,185.256512 L323.664774,166.005293 Z" id="Fill-133" fill="#FFFFFF"></path>
                            <path d="M210.983473,178.132194 L302.39559,188.909715 C304.791283,189.191374 306.866827,187.263093 306.755589,184.858158 L303.737232,119.460445 C303.644986,117.480707 302.082223,115.885542 300.101639,115.750129 L204.180301,109.200201 C201.731701,109.033643 199.737551,111.133899 200.037352,113.564563 L207.56493,174.736036 C207.784693,176.519425 209.195521,177.92095 210.983473,178.132194" id="Fill-134" fill="#C8D5E5"></path>
                            <ellipse id="Logo" fill="#F2F5F9" cx="254.395821" cy="149.318284" rx="5.35379776" ry="5.34893495"></ellipse>
                            <path d="M227.226491,36.8059295 C228.114148,41.4605642 228.437444,46.2582108 228.096124,51.0720474 C227.882095,53.5072983 227.37969,55.8103306 226.918965,58.1052678 C226.691419,59.2520619 226.45486,60.3799675 226.373755,61.5227141 C226.256602,62.668159 226.390652,63.839238 226.522448,65.0238088 C226.131564,63.9269341 225.870223,62.7464108 225.789118,61.5159682 C225.732794,60.2855257 225.856706,59.0685748 226.006526,57.8920991 C226.287017,55.5324017 226.734224,53.2172269 226.912206,50.9303846 C227.113844,48.6192573 227.149891,46.2690041 227.19157,43.9147034 L227.226491,36.8059295 Z" id="Fill-135" fill="#FFFFFF" opacity="0.200000003"></path>
                            <path d="M233.477798,46.6208441 C234.468602,48.5678011 235.117474,50.643394 235.416465,52.7712451 C235.748853,54.8856967 235.604129,57.1220844 235.01569,59.2097369 C234.444746,61.2947095 233.606619,63.2711455 233.156543,65.265001 C232.695334,67.2427771 232.838468,69.3290896 234.191876,71.1581304 C233.290134,70.4157944 232.638081,69.4470058 232.25321,68.3951398 C231.896966,67.3338941 231.849255,66.2096705 231.970124,65.1296654 C232.20868,62.9535758 233.002276,60.9342611 233.520738,58.9216462 C234.109177,56.9224309 234.301612,54.9178557 234.226865,52.8449428 C234.136213,50.7854294 233.897657,48.7031367 233.477798,46.6208441" id="Fill-136" fill="#FFFFFF" opacity="0.200000003"></path>
                            <g id="Group-139" transform="translate(260.132365, 24.537286)" fill="#231F20">
                                <path d="M5.6443815,9.54677458 C5.6443815,9.54677458 6.15053527,10.7611074 7.04676489,12.2674777 L5.6443815,9.54677458 Z" id="Fill-137"></path>
                                <path d="M0.49106119,33.9964278 C0.566646821,32.4683244 7.70858035,29.2267154 7.26687162,16.1417373 C6.82516289,3.05675919 5.6443815,9.54677458 5.6443815,9.54677458 C5.6443815,9.54677458 9.18745792,10.9050886 9.6936117,7.33951422 C10.1997655,3.7739398 4.80079187,6.66035719 4.96950979,4.11351832 C5.13822772,1.56667944 3.95720224,1.05731167 3.95720224,1.05731167 C3.95720224,1.05731167 3.15140543,1.75276847 2.61150807,2.57319017 C2.45223835,3.01600055 2.29566812,3.47375239 2.14044763,3.94508737 C2.15799429,4.12710146 2.21873274,4.29824903 2.34155939,4.45309683 C2.73703421,4.9515981 2.50622809,4.80761681 2.01087226,4.34035677 C1.01881086,7.44410441 3.9041641,13.0585381 4.36037737,15.557836 C4.81659064,18.0571339 2.4724845,27.7590496 1.03230829,31.4495889 C-0.110924367,34.3767557 0.438421197,35.0559127 0.49106119,33.9964278 Z" id="Fill-138" opacity="0.049999997"></path>
                            </g>
                            <path d="M334.791444,65.4732252 C334.791444,65.4732252 337.396913,61.849882 340.286591,62.6989969 C343.176268,63.5481118 343.970419,63.5481118 346.29304,65.0765187 C348.61566,66.6049256 351.222489,67.5681616 351.959527,67.7379846 C352.695205,67.9078076 354.509242,69.8315624 355.584882,70.2853295 C356.661882,70.7377379 361.024274,72.3232053 361.931293,73.3978452 C362.838312,74.4738437 365.388027,76.56878 365.388027,76.56878 C365.388027,76.56878 366.180818,77.757541 365.048065,77.927364 C363.913952,78.0971869 363.913952,77.9613286 363.12116,77.5197888 C362.328369,77.078249 358.531673,74.3610812 357.851749,74.1912582 C357.851749,74.1912582 359.664426,77.5591877 359.551559,77.9980103 C359.438692,78.4368329 359.494445,79.1161249 358.701654,79.1718268 C357.908862,79.2288873 355.924844,78.0971869 354.849204,75.8324276 C353.772204,73.5676682 349.912955,71.7566758 349.912955,71.7566758 C349.912955,71.7566758 350.021743,73.6247287 349.912955,74.1912582 C349.805527,74.7564291 349.182717,78.6664336 349.295584,79.174544 C349.409812,79.6812958 349.919755,83.644285 348.219945,83.4174015 C346.520134,83.1918766 345.556002,80.7002337 345.500248,79.7954168 C345.443135,78.8892414 345.84021,73.0581992 344.876078,71.3042674 C343.913306,69.548977 344.253268,71.2472069 344.253268,71.2472069 C344.253268,71.2472069 343.573344,76.56878 343.573344,77.6434199 C343.573344,78.7194184 343.290495,83.1918766 341.590685,83.1348161 C339.890875,83.0777556 339.380932,81.5493487 339.493799,80.7572942 C339.606667,79.9652398 339.946629,72.6628513 338.870989,71.9264988 C338.870989,71.9264988 336.774103,72.5487303 336.944084,73.2280222 C337.114065,73.9073142 336.321274,75.4180595 335.527122,75.370509 C334.734331,75.3229586 333.091634,74.7564291 332.581691,73.2850827 C332.071748,71.8137364 331.107616,69.8315624 331.334711,69.4919165 C331.561805,69.1522705 334.791444,65.4732252 334.791444,65.4732252" id="Fill-88" fill="#FABCBB"></path>
                        </g>
                        <g id="Plant" transform="translate(431.937366, 283.107685) rotate(16.000000) translate(-431.937366, -283.107685) translate(295.054924, 110.157494)">
                            <g id="Bottle" transform="translate(140.299273, 213.608143)">
                                <path d="M51.3561121,127.645814 C61.989908,127.646193 70.1647506,93.2046523 70.8339074,57.9122505 C58.8352048,62.1071385 61.5408671,64.6462101 53.3830843,64.4791336 L34.4776197,61.7101985 C34.8416391,97.973181 40.5155161,127.645427 51.3561121,127.645814 Z" id="Combined-Shape" fill="url(#linearGradient-19)" opacity="0.049999997" transform="translate(52.655764, 92.779032) rotate(-15.000000) translate(-52.655764, -92.779032) "></path>
                                <path d="M0,15.9753096 C0,15.9753096 14.2569714,59.2063276 29.2526206,68.5501262 C29.2526206,68.5501262 49.3318943,68.2667206 59.6230742,59.329014 C59.6230742,59.329014 67.7227616,46.3217985 55.6339689,1.34740637 C51.6767667,-4.51700507 2.59273437,10.320692 0,15.9753096" id="Fill-27" fill="url(#linearGradient-20)"></path>
                                <path d="M55.1730381,0.961826582 C55.54115,2.30769674 43.4916225,6.77839031 28.2603817,10.9460484 C13.0279139,15.1149334 0.380818275,17.4042622 0.0127064387,16.058392 C-0.355405398,14.7125219 7.25101219,9.55969172 25.9314609,4.50378387 C46.8009479,-1.14347259 54.8049263,-0.384043575 55.1730381,0.961826582" id="Fill-73" fill="#8B5E3C"></path>
                                <path d="M28.082025,10.6035493 C37.6099864,7.99646263 45.8925027,5.27037011 50.6693673,3.26567382 C49.3368024,2.10383331 42.1254915,1.57628165 25.626719,6.03225285 C11.4200562,9.86988444 4.76827532,14.0902977 3.68111837,15.9428628 C8.60768178,15.3932276 17.7478987,13.4326984 28.082025,10.6035493" id="Fill-75" fill="#3C2415"></path>
                            </g>
                            <g id="plant" transform="translate(136.585222, 133.109385) rotate(-27.000000) translate(-136.585222, -133.109385) translate(31.937894, 37.753063)">
                                <path d="M92.8934439,185.485253 C92.8934439,185.485253 112.95733,144.042876 84.6862276,107.890381 C56.4167471,71.7378862 16.2905965,78.792108 39.0891402,31.1768947 C61.8876839,-16.4383185 79.2136688,-5.85698578 90.1571645,38.2311166 C101.102282,82.319219 134.842699,67.3293896 125.723931,111.415924 C116.60354,155.505594 92.8934439,185.485253 92.8934439,185.485253" id="Fill-1" fill="url(#linearGradient-21)"></path>
                                <path d="M62.8241768,25.8816632 C62.8241768,25.8816632 59.3039734,45.4637087 77.7846499,65.0457542 C96.2653264,84.6277997 112.107024,95.3093472 106.825937,138.035537" id="Stroke-3" stroke="#3C4858" opacity="0.300000012"></path>
                                <path d="M90.9593322,187.642058 C90.9593322,187.642058 83.657596,62.8115169 134.769749,74.4861778 C185.880279,86.1608388 181.317099,55.112534 192.269703,44.3355553 C203.222308,33.5585766 229.689072,99.1181311 180.404788,92.8327582 C131.118881,86.5457879 90.047021,169.680427 90.9593322,187.642058" id="Fill-5" fill="url(#linearGradient-22)"></path>
                                <path d="M91.3790403,185.485253 C91.3790403,185.485253 80.7513465,112.936049 47.9830178,97.8955903 C15.2146891,82.8551319 -21.9814516,62.5069244 16.1015116,53.6601513 C54.1828996,44.8118046 116.176992,63.391287 91.3790403,185.485253" id="Fill-7" fill="url(#linearGradient-23)"></path>
                                <path d="M189.947984,62.5473528 C189.947984,62.5473528 202.533156,89.1857741 165.110282,86.0120337 C127.687408,82.8382934 103.903481,93.2321825 90.5987526,189.798864" id="Stroke-10" stroke="#3C4858" opacity="0.5"></path>
                                <path d="M25.8853579,71.197879 C25.8853579,71.197879 74.3441844,67.6290112 88.4416394,148.819563" id="Stroke-12" stroke="#3C4858" opacity="0.200000003"></path>
                            </g>
                        </g>
                        <g id="Plant-2" transform="translate(49.081578, 89.561095)">
                            <g id="Group" transform="translate(20.859671, 55.208894) rotate(16.000000) translate(-20.859671, -55.208894) translate(6.135197, 39.259658)">
                                <path d="M0,7.43380062 C0,7.43380062 6.74145666,27.5505167 13.8321996,31.8984723 C13.8321996,31.8984723 23.3267513,31.7665949 28.1929702,27.6076065 C28.1929702,27.6076065 32.0229345,21.5549509 26.3067084,0.626989433 C24.4355321,-2.10190074 1.22598312,4.80253393 0,7.43380062" id="Fill-27" fill="url(#linearGradient-24)"></path>
                                <path d="M26.3451353,0.444230319 C26.5209088,1.06583544 20.7672573,3.13067506 13.4943372,5.05555437 C6.22083117,6.98100031 0.181840793,8.03835232 0.0060673267,7.4167472 C-0.169706139,6.79514208 3.46235958,4.41525009 12.3822771,2.08012274 C22.3474608,-0.52812555 26.1693618,-0.177374802 26.3451353,0.444230319" id="Fill-73" fill="#8B5E3C"></path>
                                <path d="M13.2207512,4.43040437 C17.7779177,3.25609649 21.7393954,2.02818491 24.0241409,1.12521123 C23.3867832,0.601884374 19.9376566,0.36425972 12.0463931,2.37135912 C5.25143192,4.09994032 2.0699252,6.00093755 1.54994458,6.83538691 C3.90629017,6.58781518 8.27800085,5.70473565 13.2207512,4.43040437" id="Fill-75" fill="#3C2415"></path>
                            </g>
                            <path d="M21.449431,42.9402511 C21.449431,42.9402511 26.1183946,33.3462481 19.539572,24.9768646 C12.9611269,16.6074812 3.62357719,18.2405493 8.92890881,7.21752089 C14.2342404,-3.80550753 18.2660811,-1.35590531 20.8126856,8.85058904 C23.3596675,19.0570834 31.2112261,15.5869044 29.0892445,25.7930356 C26.9668853,35.999893 21.449431,42.9402511 21.449431,42.9402511" id="Fill-1" fill="url(#linearGradient-25)"></path>
                            <path d="M14.7897826,6.13432159 C14.7897826,6.13432159 13.9316062,10.6327375 18.4369369,15.1311534 C22.9422677,19.6295693 26.8042523,22.0833499 25.5167969,31.8984723" id="Stroke-3" stroke="#3C4858" opacity="0.5"></path>
                            <path d="M22.1687542,42.9402511 C22.1687542,42.9402511 20.5073637,14.3251414 32.1370972,17.0013431 C43.7664615,19.6775447 42.7281847,12.5602909 45.2202705,10.0898664 C47.7123563,7.61944193 53.7344352,22.6477661 42.5206033,21.2069598 C31.306402,19.7657873 21.9611727,38.8228769 22.1687542,42.9402511" id="Fill-5" fill="url(#linearGradient-26)"></path>
                            <path d="M21.9469048,44.1671154 C21.9469048,44.1671154 19.394405,26.8609874 11.5242918,23.2731865 C3.65417859,19.6853857 -5.27938162,14.8314567 3.86717064,12.7211181 C13.0133446,10.6104041 27.9027377,15.0424155 21.9469048,44.1671154" id="Fill-7" fill="url(#linearGradient-27)"></path>
                            <path d="M44.9324831,14.7223718 C44.9324831,14.7223718 47.8264963,20.8862396 39.2209492,20.1518674 C30.6154021,19.4174952 25.1461884,21.8225386 22.0867102,44.1671154" id="Stroke-10" stroke="#3C4858" opacity="0.5"></path>
                            <path d="M6.13519728,17.1816241 C6.13519728,17.1816241 17.5414172,16.3357518 20.8596707,35.5790652" id="Stroke-12" stroke="#3C4858" opacity="0.200000003"></path>
                        </g>
                    </g>
                </g>
                <g id="Group" transform="translate(701.000000, 304.000000)">
                    <path d="M45.768,4.75 C31.648,8.212 24.259,1.806 23.261,0.856 C23.261,0.856 23.237,0.759 23.202,0.8 C23.164,0.762 23.145,0.859 23.145,0.859 C22.2,1.859 15.168,8.658 0.882,5.968 C0.882,5.968 -0.606,31.594 7.956,41.801 C17.1,52.702 24.656,55.867 24.694,55.837 C24.731,55.865 32.168,52.357 40.644,40.915 C48.577,30.209 45.768,4.75 45.768,4.75 Z" id="Path" fill="#3151B7"></path>
                    <path d="M43.762,7.436 C30.946,10.524 24.245,4.824 23.341,3.979 C23.341,3.979 23.321,3.894 23.287,3.928 C23.253,3.894 23.237,3.983 23.237,3.983 C22.379,4.874 15.995,10.929 3.031,8.541 C3.031,8.541 1.671,31.356 9.435,40.437 C17.728,50.139 24.589,53.562 24.626,53.534 C24.661,53.561 31.402,49.825 39.097,39.633 C46.296,30.101 43.762,7.436 43.762,7.436 Z" id="Path" fill="#F4F8FF"></path>
                    <g opacity="0.06" transform="translate(2.000000, 2.000000)" fill="#010101" id="Path">
                        <path d="M21.291,4.225 C21.291,4.225 21.308,4.135 21.343,4.169 C21.379,4.131 21.401,4.222 21.401,4.222 C22.329,5.087 29.099,10.845 42.015,8.019 C41.888,5.702 41.728,4.253 41.728,4.253 C28.91,7.34 22.208,1.639 21.304,0.797 C21.304,0.797 21.286,0.71 21.251,0.746 C21.216,0.713 21.201,0.798 21.201,0.798 C20.342,1.689 13.96,7.747 0.996,5.357 C0.996,5.357 0.91,6.811 0.904,9.13 C13.959,11.258 20.408,5.143 21.291,4.225 Z"></path>
                    </g>
                    <path d="M40.114,13.865 C30.434,16.238 24.199,11.644 23.517,10.994 C23.517,10.994 23.501,10.927 23.476,10.955 C23.451,10.928 23.439,10.996 23.439,10.996 C22.791,11.683 16.875,16.595 7.083,14.748 C7.083,14.748 7.155,32.069 13.025,39.064 C19.294,46.537 24.476,48.708 24.498,48.688 C24.526,48.706 29.626,46.302 35.435,38.457 C40.871,31.116 40.114,13.865 40.114,13.865 Z" id="Path" fill="#3151B7"></path>
                </g>
            </g>
        </g>
    </g>
</svg>